<svg xmlns="http://www.w3.org/2000/svg" xmlns:xlink="http://www.w3.org/1999/xlink" width="2492" height="2003" viewBox="0 0 2492 2003"><defs><clipPath id="a"><rect width="2492" height="2003" transform="translate(3.044 -268.667)" fill="#fff" stroke="#707070" stroke-width="1"/></clipPath></defs><g transform="translate(-3.044 268.667)" clip-path="url(#a)"><g transform="translate(-171.943 -548.388)"><path d="M86.626,396.045C162.2,401.5,242.374,415.08,308.9,381.857c68.041-33.979,118.1-97.26,138.039-165.75,18.743-64.37-12.061-129.709-33.471-193.38C395.044-32.067,374.934-86.96,331.21-128.051c-42.3-39.754-104.973-48.594-158.2-75.207C101.859-238.835,46.762-312.943-34.306-310.812c-82.441,2.166-161.394,54.347-204.921,118.386-41.923,61.679-24.039,140.119-20.078,212.644a490.664,490.664,0,0,0,41.122,172.717c25.57,58.342,48.437,121.37,104,158.392,56.825,37.865,130.712,39.658,200.813,44.717" transform="translate(1597.241 1085.519)" fill="rgba(98,59,24,0.19)"/><path d="M86.626,396.045C162.2,401.5,242.374,415.08,308.9,381.857c68.041-33.979,118.1-97.26,138.039-165.75,18.743-64.37-12.061-129.709-33.471-193.38C395.044-32.067,374.934-86.96,331.21-128.051c-42.3-39.754-104.973-48.594-158.2-75.207C101.859-238.835,46.762-312.943-34.306-310.812c-82.441,2.166-161.394,54.347-204.921,118.386-41.923,61.679-24.039,140.119-20.078,212.644a490.664,490.664,0,0,0,41.122,172.717c25.57,58.342,48.437,121.37,104,158.392,56.825,37.865,130.712,39.658,200.813,44.717" transform="translate(642.587 1571.907)" fill="rgba(98,59,24,0.19)"/><path d="M834.958,879.7c80.2-4.775,162.7,4.817,234.1-28.9,75.07-35.45,144.23-90.445,172.668-163.178,27.718-70.89-15.489-145.3-22.734-220.292-7.781-80.508,32.581-172.76-21.437-236.745-53.989-63.959-156.655-76.964-245.008-78.876-76.868-1.664-140.855,44.742-213.034,68.962C673.128,242.944,592.2,239.982,545.3,288.36c-47.011,48.481-37.649,121.025-50.536,184.729-13.506,66.743-40.94,131.319-26.911,197.968C484.226,748.836,506.815,838.079,580.4,879.9c73.549,41.8,168.134,4.949,254.56-.2" transform="translate(-463.964 50.881)" fill="rgba(186,111,45,0.19)"/><path d="M834.958,879.7c80.2-4.775,162.7,4.817,234.1-28.9,75.07-35.45,144.23-90.445,172.668-163.178,27.718-70.89-15.489-145.3-22.734-220.292-7.781-80.508,32.581-172.76-21.437-236.745-53.989-63.959-156.655-76.964-245.008-78.876-76.868-1.664-140.855,44.742-213.034,68.962C673.128,242.944,592.2,239.982,545.3,288.36c-47.011,48.481-37.649,121.025-50.536,184.729-13.506,66.743-40.94,131.319-26.911,197.968C484.226,748.836,506.815,838.079,580.4,879.9c73.549,41.8,168.134,4.949,254.56-.2" transform="translate(1340.036 -151.663)" fill="rgba(186,111,45,0.19)"/><path d="M834.958,879.7c80.2-4.775,162.7,4.817,234.1-28.9,75.07-35.45,144.23-90.445,172.668-163.178,27.718-70.89-15.489-145.3-22.734-220.292-7.781-80.508,32.581-172.76-21.437-236.745-53.989-63.959-156.655-76.964-245.008-78.876-76.868-1.664-140.855,44.742-213.034,68.962C673.128,242.944,592.2,239.982,545.3,288.36c-47.011,48.481-37.649,121.025-50.536,184.729-13.506,66.743-40.94,131.319-26.911,197.968C484.226,748.836,506.815,838.079,580.4,879.9c73.549,41.8,168.134,4.949,254.56-.2" transform="translate(1311.036 1383.337)" fill="rgba(186,111,45,0.19)"/></g></g></svg>