<svg id="Layer_1" data-name="Layer 1" xmlns="http://www.w3.org/2000/svg" xmlns:xlink="http://www.w3.org/1999/xlink" viewBox="0 0 520.74 521.23"><defs><style>.cls-1,.cls-7,.cls-8{fill:none;}.cls-2{fill:#283021;}.cls-3{fill:#87a6d2;}.cls-4{clip-path:url(#clip-path);}.cls-5{fill:#ffead3;}.cls-6{fill:#332624;}.cls-7{stroke:#283021;stroke-width:16px;}.cls-7,.cls-8{stroke-miterlimit:10;}.cls-8{stroke:#ffead3;}</style><clipPath id="clip-path" transform="translate(-173.1 -160.32)"><rect class="cls-1" x="220.48" y="209.26" width="426.65" height="424.01"/></clipPath></defs><g id="Group_18" data-name="Group 18"><g id="Ellipse_2" data-name="Ellipse 2"><path class="cls-2" d="M426.64,188.72l-20.36,1.57-2.18-28.21,19.95-1.54.34,4.42-14.31,1.1.58,7.44,13.28-1,.35,4.45L411,178l.58,7.44,14.71-1.14Z" transform="translate(-173.1 -160.32)"/><path class="cls-2" d="M459.87,188.33l-3,3.5c-2.61-1.85-3.9-2.32-5.58-2.41a12.77,12.77,0,0,0-3,.22,13.13,13.13,0,0,1-2.92.15c-8.73-.44-13.68-6.55-13.24-15.4s6-14.48,14.7-14,13.67,6.55,13.23,15.43a12.29,12.29,0,0,1-4.91,9.7A11.55,11.55,0,0,1,459.87,188.33Zm-14.31-2.76c5,.24,8.22-3.5,8.54-10.09s-2.51-10.63-7.51-10.88-8.25,3.45-8.58,10.08S440.52,185.32,445.56,185.57Z" transform="translate(-173.1 -160.32)"/><path class="cls-2" d="M490.54,183.83c-.22,1.17-.37,2-.7,3.25-1.23,4.56-5.2,7.95-13,6.49s-10.29-6.07-9.79-10.77c.17-1.3.32-2.11.54-3.28L470.7,163l5.52,1-3.2,17a17.24,17.24,0,0,0-.3,2c-.35,3.23,1.21,5.57,4.92,6.27s6-.93,6.81-4.06a16.25,16.25,0,0,0,.46-2l3.2-17.05,5.52,1Z" transform="translate(-173.1 -160.32)"/><path class="cls-3" d="M521,193.29c-.37,1.13-.63,1.91-1.12,3.13-1.82,4.37-6.2,7.2-13.72,4.73s-9.41-7.36-8.29-12c.33-1.27.59-2,1-3.18L504,170.09l5.34,1.75-5.41,16.48a13.86,13.86,0,0,0-.56,2c-.78,3.15.46,5.68,4.05,6.85s6-.13,7.28-3.13a16.11,16.11,0,0,0,.72-1.92l5.41-16.48,5.34,1.75Z" transform="translate(-173.1 -160.32)"/><path class="cls-3" d="M550.51,197.51l-5.23-2.46c.92-2.73.24-5.05-2.43-6.3-2-1-4.05-.73-5,1.34s-.14,3.88,3.48,6.76c5,4,6.33,7.74,4.39,11.85-2.27,4.83-8,5.49-13,3.12-6.12-2.88-8.85-7.47-6.8-13.08l5.23,2.46a5.63,5.63,0,0,0,3.3,6.76c2.33,1.1,4.78.72,5.71-1.25,1-2.15.27-4-3.1-6.71-4.63-3.72-7.08-7.1-4.86-11.81s7.79-5.48,12.68-3.18C551,187.89,552.1,192.69,550.51,197.51Z" transform="translate(-173.1 -160.32)"/><path class="cls-2" d="M581.37,226.29l-3.19-2.16-6.59,9.7a47.33,47.33,0,0,1-8.52-4.6c-5.46-3.71-8.45-7.92-5.09-12.87,2.14-3.16,5.81-3.89,9.64-2.23a6.54,6.54,0,0,1-.79-8.17c2.86-4.21,7.9-4.4,13.29-.74a20.65,20.65,0,0,1,3.47,2.85l-2.35,3.46a23.24,23.24,0,0,0-3.46-2.79c-2.48-1.68-4.62-1.45-6.07.68-1.61,2.38-.75,4.25,1.08,5.64.59.45,1.33,1,2,1.4l1.22.83,2.14-3.16,4.68,3.18-2.14,3.16,3.19,2.16Zm-15.83-.48a18,18,0,0,0,3.38,1.89L573.5,221l-1.53-1a21.23,21.23,0,0,0-1.94-1.22c-3.12-1.82-5.36-1.46-6.65.44C561.56,221.81,562.56,223.78,565.54,225.81Z" transform="translate(-173.1 -160.32)"/><path class="cls-2" d="M595.58,243.28l-7.91,4.24-4.38-4.14,26.87-13.51,5.15,4.87-12.2,27.42-4.46-4.23,3.84-8.11ZM599.7,241l4.82,4.57,4.81-9.84Z" transform="translate(-173.1 -160.32)"/><path class="cls-2" d="M623.62,287.5,619,281.61l15.49-18.38-21.63,10.59-4.67-5.93L626,244.8l3.78,4.8-15.85,18.56,21.57-10.64,4.93,6.24-15.55,18.43,22-10.89,3.6,4.57Z" transform="translate(-173.1 -160.32)"/><path class="cls-2" d="M639.55,296.92l-8.8,1.82-3-5.22,29.6-5.33,3.55,6.14L641.4,317.16l-3.08-5.33,6-6.68Zm4.58-1,3.33,5.75,7.41-8.07Z" transform="translate(-173.1 -160.32)"/><path class="cls-2" d="M652.14,342.47l-2.41-5.71A24.85,24.85,0,0,1,655,333c2.65-1.52,3.9-3.3,3.16-5.47-.27-.74-.54-1.38-.82-2.06l-1.28-3-10.5,4.44-2.2-5.22,26.06-11,4,9.52a33,33,0,0,1,1.41,3.86c1.14,4,.47,7.85-4,9.75-3.36,1.42-6.32.31-8.5-2.42.11,3-1.63,4.88-4.41,6.41C654.88,339.48,653.16,340.79,652.14,342.47Zm9.33-18.06c.38.91.65,1.55.93,2.1,1.06,2,2.79,3.23,5.32,2.16s2.84-2.85,2.24-5a16.85,16.85,0,0,0-.81-2.24l-1.61-3.81L660,320.83Z" transform="translate(-173.1 -160.32)"/><path class="cls-2" d="M659.48,367.54l-5.65-19.62L681,340.08l5.54,19.23-4.25,1.23-4-13.79-7.17,2.06,3.69,12.81-4.29,1.24-3.69-12.81-7.17,2.07,4.08,14.18Z" transform="translate(-173.1 -160.32)"/><path class="cls-2" d="M663.47,390.66l19.47-14.77c-3,.63-6.21,1.16-8.56,1.52l-12.64,1.94-.86-5.59,28-4.29,1.14,7.42L670.14,392c3-.62,6.37-1.19,8.76-1.55l12.85-2,.85,5.55-28,4.33Z" transform="translate(-173.1 -160.32)"/><path class="cls-2" d="M665.58,426.53l-.5-20.41,28.27-.69.5,20-4.43.11-.35-14.35-7.46.19.33,13.32-4.47.11-.33-13.32-7.46.18.36,14.75Z" transform="translate(-173.1 -160.32)"/><path class="cls-2" d="M683.39,454.29l.51-5.76c2.89-.08,4.82-1.51,5.08-4.45.2-2.25-.71-4.06-3-4.26s-3.68,1.2-5.14,5.6c-2,6.08-5.08,8.61-9.62,8.21-5.31-.47-7.9-5.6-7.41-11.15.59-6.74,4-10.89,9.93-10.9l-.51,5.76a5.64,5.64,0,0,0-5.21,5.43c-.23,2.57,1,4.73,3.15,4.92,2.37.21,3.89-1.13,5.23-5.21,1.9-5.64,4.22-9.1,9.41-8.64s7.84,5.42,7.36,10.81C692.58,451.39,688.47,454.12,683.39,454.29Z" transform="translate(-173.1 -160.32)"/><path class="cls-2" d="M678.05,482.34l1.15-5.66c2.88.25,5-1,5.56-3.85.45-2.21-.25-4.11-2.5-4.57s-3.8.78-5.75,5c-2.65,5.82-6,8-10.48,7.07-5.22-1.06-7.22-6.45-6.1-11.92,1.35-6.62,5.17-10.36,11.1-9.7l-1.16,5.67a5.64,5.64,0,0,0-5.79,4.8c-.51,2.53.44,4.82,2.57,5.25,2.33.48,4-.69,5.79-4.59,2.52-5.39,5.22-8.56,10.32-7.52s7.18,6.27,6.1,11.58C687.5,480.51,683.11,482.75,678.05,482.34Z" transform="translate(-173.1 -160.32)"/><path class="cls-2" d="M664.36,493.49l3,1-3,9-3-1Z" transform="translate(-173.1 -160.32)"/><path class="cls-2" d="M637.73,531.47l8.83-18.41,25.51,12.23-8.66,18-4-1.91,6.21-12.94-6.73-3.23-5.77,12-4-1.94,5.76-12-6.73-3.23-6.38,13.31Z" transform="translate(-173.1 -160.32)"/><path class="cls-2" d="M621.37,560.42l-1.52-4.35c2.92-1.34,4-2.21,4.89-3.62a12.45,12.45,0,0,0,1.32-2.72,13.08,13.08,0,0,1,1.34-2.59c4.76-7.33,12.53-8.54,20-3.72s9.53,12.44,4.77,19.77-12.53,8.53-20,3.69a12.27,12.27,0,0,1-5.91-9.12A11.7,11.7,0,0,1,621.37,560.42Zm9.58-11c-2.73,4.2-1.11,8.87,4.43,12.46s10.45,3.17,13.18-1,1.16-8.87-4.41-12.49S633.69,545.2,631,549.43Z" transform="translate(-173.1 -160.32)"/><path class="cls-2" d="M609.86,589.2c-.9-.78-1.53-1.31-2.47-2.23-3.33-3.36-4.26-8.49.91-14.49s10.41-5.85,14.22-3.05c1.05.79,1.67,1.33,2.57,2.1l12.7,11-3.67,4.25L621,575.41a16,16,0,0,0-1.61-1.27c-2.61-1.93-5.42-1.76-7.88,1.1s-2.2,5.63.09,7.93a14.06,14.06,0,0,0,1.5,1.4l13.13,11.33-3.66,4.25Z" transform="translate(-173.1 -160.32)"/><path class="cls-3" d="M586.47,610.74c-.8-.89-1.34-1.5-2.15-2.53-2.87-3.76-3.13-9,2.77-14.24s11.08-4.46,14.49-1.19c.94.92,1.48,1.53,2.28,2.42L615,607.7l-4.19,3.74-11.55-12.93a15.66,15.66,0,0,0-1.43-1.47c-2.34-2.25-5.15-2.44-8,.07S587,602.41,589,605a15.28,15.28,0,0,0,1.3,1.58l11.55,12.93-4.18,3.74Z" transform="translate(-173.1 -160.32)"/><path class="cls-3" d="M568.05,634.24l4.75-3.3c1.91,2.17,4.25,2.74,6.67,1,1.85-1.29,2.66-3.15,1.35-5s-3.29-2.06-7.6-.36c-5.93,2.38-9.86,1.62-12.46-2.12-3-4.37-.78-9.65,3.8-12.84,5.56-3.86,10.9-3.93,14.73.64l-4.74,3.3a5.64,5.64,0,0,0-7.51-.52c-2.12,1.48-3,3.79-1.76,5.58,1.35,2,3.36,2.25,7.36.67,5.54-2.16,9.68-2.59,12.66,1.68s.86,9.49-3.58,12.59C576.16,639.44,571.44,638,568.05,634.24Z" transform="translate(-173.1 -160.32)"/><path class="cls-2" d="M527.73,646.59l3.47-1.68-5.12-10.55a47.67,47.67,0,0,1,8.24-5.09c5.94-2.88,11.09-3.36,13.7,2,1.66,3.43.46,7-2.89,9.47a6.54,6.54,0,0,1,7.48,3.39c2.22,4.57-.13,9-6,11.88a19.68,19.68,0,0,1-4.2,1.58l-1.82-3.76a24.17,24.17,0,0,0,4.14-1.6c2.7-1.31,3.56-3.28,2.44-5.6-1.25-2.58-3.31-2.77-5.43-1.88-.68.28-1.49.68-2.19,1l-1.33.64,1.66,3.43-5.09,2.47-1.66-3.43-3.47,1.68Zm8.33-13.46a17.33,17.33,0,0,0-3.33,2l3.56,7.34,1.66-.8a18.4,18.4,0,0,0,2-1.08c3.14-1.79,3.94-3.91,2.93-6C541.5,631.67,539.3,631.55,536.06,633.13Z" transform="translate(-173.1 -160.32)"/><path class="cls-2" d="M505.88,650.42l.29-9,5.78-1.71-1.77,30-6.8,2-17.62-24.3,5.9-1.74,5.09,7.39Zm-.11,4.69L499.4,657l6.11,9.09Z" transform="translate(-173.1 -160.32)"/><path class="cls-2" d="M453.55,652.48l7.42-1.06L469.08,674l1.72-24,7.47-1.06,11,27-6,.86-8.09-23-1.63,24-7.87,1.13-8.12-22.7-1.65,24.5-5.76.82Z" transform="translate(-173.1 -160.32)"/><path class="cls-2" d="M437.11,661.58l3-8.48,6,.1-10.68,28.12-7.09-.11-9.54-28.46,6.15.1,2.65,8.58ZM435.6,666l-6.64-.11,3.11,10.51Z" transform="translate(-173.1 -160.32)"/><path class="cls-2" d="M391.69,649.61l6.14.77a24.83,24.83,0,0,1,.6,6.44c0,3,.91,5,3.16,5.47.77.14,1.46.22,2.2.32l3.25.4,1.41-11.31,5.61.7-3.49,28.07-10.25-1.28a30.81,30.81,0,0,1-4.05-.71c-4-1-7-3.52-6.43-8.36.45-3.62,2.89-5.63,6.34-6.15-2.64-1.4-3.4-3.85-3.34-7C392.9,653.48,392.63,651.34,391.69,649.61Zm11,17.11c-1-.12-1.66-.21-2.28-.24-2.26-.08-4.19.8-4.53,3.52s1.05,3.89,3.21,4.45a19.25,19.25,0,0,0,2.34.42l4.11.51,1-8.18Z" transform="translate(-173.1 -160.32)"/><path class="cls-2" d="M366.29,643.44l19.82,4.91-6.8,27.46L359.89,671l1.06-4.3,13.93,3.45,1.79-7.24-12.93-3.2,1.07-4.34,12.94,3.2,1.79-7.24-14.32-3.55Z" transform="translate(-173.1 -160.32)"/><path class="cls-2" d="M344.29,635.35l3,24.25c1-2.93,2.1-6,3-8.18L355,639.5l5.28,2.06L350,667.92l-7-2.72-3.13-24.73c-.95,2.89-2.16,6.12-3,8.37L332.07,661l-5.24-2,10.24-26.38Z" transform="translate(-173.1 -160.32)"/><path class="cls-2" d="M312.14,619.19l17.92,9.8-13.57,24.82-17.56-9.6,2.12-3.88,12.6,6.88,3.57-6.54-11.69-6.4,2.14-3.92,11.7,6.39,3.58-6.55L310,623.11Z" transform="translate(-173.1 -160.32)"/><path class="cls-2" d="M279.22,620.66,284,624c-1.39,2.53-1.12,4.93,1.29,6.63,1.84,1.3,3.86,1.42,5.19-.45s.81-3.79-2.26-7.26c-4.26-4.77-4.89-8.72-2.26-12.44,3.07-4.36,8.8-4,13.36-.81,5.53,3.9,7.42,8.9,4.43,14.06L299,620.39a5.63,5.63,0,0,0-2.08-7.23c-2.11-1.49-4.59-1.53-5.84.24-1.37,2-1,3.94,1.88,7.15,3.93,4.47,5.75,8.22,2.75,12.47s-8.63,4.06-13.05.94C277.11,630.06,276.82,625.13,279.22,620.66Z" transform="translate(-173.1 -160.32)"/><path class="cls-2" d="M257.64,601.94l4.32,3.85c-1.66,2.36-1.67,4.77.54,6.73,1.68,1.5,3.68,1.85,5.21.13s1.23-3.67-1.43-7.46c-3.7-5.22-3.87-9.22-.85-12.61,3.54-4,9.21-3,13.37.7,5.05,4.49,6.37,9.67,2.82,14.47l-4.32-3.85a5.61,5.61,0,0,0-1.25-7.41c-1.92-1.72-4.38-2-5.83-.42-1.58,1.78-1.4,3.8,1.07,7.31,3.39,4.89,4.78,8.81,1.32,12.7s-9,3-13.07-.54C254.49,611,254.75,606.12,257.64,601.94Z" transform="translate(-173.1 -160.32)"/><path class="cls-2" d="M254.89,584.55l-2.39,2.12-6.29-7.13,2.39-2.12Z" transform="translate(-173.1 -160.32)"/><path class="cls-2" d="M235.31,542.51l11.55,16.85-23.34,16L212.2,558.84l3.66-2.5L224,568.18l6.16-4.22-7.54-11,3.69-2.52,7.53,11,6.16-4.22L231.63,545Z" transform="translate(-173.1 -160.32)"/><path class="cls-2" d="M218.4,513.88l4.53.86c-.3,3.19-.07,4.55.7,6a11.82,11.82,0,0,0,1.69,2.5,12.82,12.82,0,0,1,1.57,2.46c4,7.78,1.14,15.12-6.75,19.15s-15.53,2-19.5-5.74S199.5,524,207.43,520a12.25,12.25,0,0,1,10.85-.57A11.62,11.62,0,0,1,218.4,513.88Zm4.73,13.78c-2.27-4.45-7.12-5.38-13-2.38s-8,7.48-5.69,11.93,7.1,5.44,13,2.42S225.43,532.16,223.13,527.66Z" transform="translate(-173.1 -160.32)"/><path class="cls-2" d="M199.24,489.5c1.12-.39,1.9-.66,3.16-1,4.58-1.2,9.49.56,12.09,8s-.14,12-4.48,13.85c-1.21.51-2,.77-3.11,1.17l-15.84,5.51-1.84-5.31L205.6,506a15,15,0,0,0,1.91-.75c3-1.3,4.23-3.82,3-7.38s-3.77-4.72-6.91-3.89a16,16,0,0,0-2,.6l-16.39,5.7L183.4,495Z" transform="translate(-173.1 -160.32)"/><path class="cls-3" d="M192.32,458.41c1.17-.24,2-.41,3.27-.59,4.69-.59,9.33,1.8,10.93,9.55s-1.7,11.83-6.25,13.14c-1.27.35-2.07.51-3.23.75l-16.43,3.39-1.14-5.5,17-3.51a14.85,14.85,0,0,0,2-.49c3.13-.9,4.7-3.23,3.93-6.92s-3.11-5.18-6.34-4.77a15.75,15.75,0,0,0-2,.34l-17,3.5-1.13-5.5Z" transform="translate(-173.1 -160.32)"/><path class="cls-3" d="M181.27,430.71l.47,5.76c-2.84.56-4.5,2.3-4.26,5.25.18,2.24,1.38,3.87,3.67,3.69s3.43-1.81,4.13-6.39c.92-6.33,3.55-9.34,8.09-9.71,5.31-.43,8.73,4.18,9.19,9.74.55,6.74-2.07,11.4-8,12.41l-.47-5.76a5.64,5.64,0,0,0,4.23-6.23c-.21-2.57-1.77-4.5-3.94-4.32-2.37.19-3.64,1.78-4.28,6-.91,5.88-2.62,9.68-7.81,10.1s-8.64-4-9.08-9.41C172.7,435.11,176.29,431.74,181.27,430.71Z" transform="translate(-173.1 -160.32)"/><path class="cls-2" d="M190.78,389.66l-.28,3.84,11.69.86a47.06,47.06,0,0,1,.28,9.68c-.48,6.58-2.63,11.28-8.6,10.84-3.8-.28-6.27-3.09-6.75-7.23a6.53,6.53,0,0,1-6.68,4.77c-5.07-.37-7.76-4.64-7.28-11.14a20.33,20.33,0,0,1,.73-4.43l4.17.31a23.15,23.15,0,0,0-.69,4.39c-.22,3,1,4.72,3.63,4.91,2.86.21,4.06-1.47,4.35-3.75.09-.74.16-1.64.21-2.41l.11-1.48-3.8-.27.41-5.65,3.8.28.28-3.84Zm7.49,13.95a18,18,0,0,0-.05-3.87l-8.13-.59L190,401a20.08,20.08,0,0,0-.08,2.29c0,3.62,1.41,5.37,3.7,5.54C196.8,409.05,198,407.21,198.27,403.61Z" transform="translate(-173.1 -160.32)"/><path class="cls-2" d="M198.38,368.83l7.64,4.74-1.41,5.86-25.13-16.54,1.66-6.89L211,352.88l-1.44,6-8.94.72Zm-4-2.44,1.56-6.46-10.94.75Z" transform="translate(-173.1 -160.32)"/><path class="cls-2" d="M222.77,322.46l-2.8,7-23.64-4.29,19.94,13.49-2.82,7-28.89-4,2.28-5.67,24,4.51-20-13.41,3-7.38L217.54,324l-20.39-13.67,2.17-5.4Z" transform="translate(-173.1 -160.32)"/><path class="cls-2" d="M223,304l5.95,6.73-3,5.21-19.33-23,3.57-6.13,29.49,5.57-3.09,5.32-8.78-1.88Zm-3.14-3.49,3.34-5.74-10.69-2.42Z" transform="translate(-173.1 -160.32)"/><path class="cls-2" d="M256.29,270.4l-3.75,4.93a25,25,0,0,1-5.86-2.72c-2.64-1.54-4.8-1.75-6.33,0-.5.6-.92,1.15-1.37,1.74l-2,2.61,9.06,6.9-3.42,4.5-22.51-17.13,6.25-8.22a34.25,34.25,0,0,1,2.65-3.14c2.87-3,6.58-4.31,10.46-1.36,2.91,2.21,3.42,5.33,2.13,8.58,2.54-1.58,5-1,7.76.64C252.34,269.5,254.33,270.35,256.29,270.4Zm-20.3.88c.6-.78,1-1.33,1.36-1.85,1.2-1.92,1.42-4-.77-5.69s-3.89-1.05-5.46.54a18.11,18.11,0,0,0-1.53,1.82l-2.51,3.29,6.56,5Z" transform="translate(-173.1 -160.32)"/><path class="cls-2" d="M274.37,251.52l-14.19,14.69-20.35-19.66,13.9-14.39,3.19,3.08-10,10.32,5.36,5.18,9.26-9.58,3.22,3.1-9.26,9.59L260.9,259l10.25-10.61Z" transform="translate(-173.1 -160.32)"/><path class="cls-2" d="M292.38,236.54l-22.52-9.49c2.05,2.3,4.1,4.8,5.59,6.66l8,10L279,247.23l-17.69-22.08,5.86-4.69,23,9.65c-2-2.27-4.21-4.93-5.72-6.82l-8.13-10.14,4.38-3.51,17.72,22.05Z" transform="translate(-173.1 -160.32)"/><path class="cls-2" d="M322.41,216.77,305,227.4l-14.73-24.16,17.08-10.41,2.31,3.78-12.25,7.47,3.88,6.37,11.38-6.94,2.33,3.82-11.38,6.93,3.89,6.38,12.6-7.69Z" transform="translate(-173.1 -160.32)"/><path class="cls-2" d="M337.58,187.51l-5.24,2.42c-1.5-2.46-3.71-3.43-6.39-2.19-2.05.95-3.16,2.64-2.2,4.73s2.88,2.59,7.42,1.67c6.26-1.32,10,.11,11.9,4.24,2.24,4.84-.91,9.64-6,12-6.14,2.85-11.41,2-14.39-3.18l5.24-2.43a5.64,5.64,0,0,0,7.3,1.82c2.35-1.09,3.62-3.22,2.71-5.19-1-2.15-2.93-2.8-7.13-1.93-5.84,1.16-10,.87-12.18-3.85s.8-9.5,5.71-11.77C330.5,181,334.91,183.19,337.58,187.51Z" transform="translate(-173.1 -160.32)"/><path class="cls-2" d="M364.63,178.17,359.14,180c-1.21-2.62-3.3-3.83-6.1-2.9-2.14.71-3.44,2.26-2.72,4.44s2.56,2.91,7.18,2.5c6.36-.59,9.91,1.26,11.34,5.58,1.68,5.06-2,9.47-7.3,11.22-6.42,2.13-11.56.68-13.94-4.8l5.49-1.81a5.64,5.64,0,0,0,7.05,2.63c2.45-.81,4-2.78,3.28-4.84-.75-2.26-2.59-3.12-6.87-2.74-5.93.49-10-.27-11.66-5.21s1.88-9.35,7-11.05C358.33,170.88,362.46,173.57,364.63,178.17Z" transform="translate(-173.1 -160.32)"/><path class="cls-2" d="M381.11,184.5l-.63-3.13,9.33-1.86.63,3.14Z" transform="translate(-173.1 -160.32)"/></g><g class="cls-4"><g id="Group_17" data-name="Group 17"><circle class="cls-5" cx="261.25" cy="261.97" r="210.97"/><path id="Path_34" data-name="Path 34" class="cls-6" d="M641.08,338a7.59,7.59,0,0,1,1.45,3.22c1.36,5.39,2.57,10.81,3.48,16.29A209.08,209.08,0,0,1,649,382c.36,7.32,1.42,14.64,1,22-.28,5.14-.53,10.29-.88,15.42-.32,4.76-.93,9.47-1.46,14.19a142.19,142.19,0,0,1-3.41,19.33c-2.22,8.66-4.33,17.35-6.88,25.91a138,138,0,0,1-7,18.08c-1.7,3.7-2.91,7.62-5,11.15-.51.85-1,1.73-1.58,2.53-.75,1-1.8,3.82-2.16,2.9-.26-.64-.55-3.36-.72-4a15.64,15.64,0,0,0-3.56-7,12,12,0,0,0-1.63-1.86c-.13,0-.89-.83-1-.83a18.09,18.09,0,0,1-4.07-2.46,8.68,8.68,0,0,0-5.31-1.68c-4.72-1.52-9.69-1.49-14.51-2.41a21.7,21.7,0,0,1-8.14-2.92,12.9,12.9,0,0,0-4.76-1.78c-6.4-1.22-11.55-4.1-14.76-10.07a98.3,98.3,0,0,0-6.42-9.72,13.57,13.57,0,0,1-2.44-7.25c-.45-10-2.74-19.66-4.74-29.37-1.6-7.79-2.86-15.6-4-23.46-1.76-12.73-5.43-24.84-13.83-35a118.89,118.89,0,0,0-9.48-9.57c-5.6-5.39-11.83-10.07-17.43-15.46a80.16,80.16,0,0,0-8-6.25c-3.29-2.43-7.32-2.24-11-2.3a68.5,68.5,0,0,0-21.39,2.56c-2.78.85-5.36,2.23-8.15,3.07a47.34,47.34,0,0,1-7.84,2c-6.21.77-10,5-13.91,9.21-8,8.52-9.65,19.63-12.54,30.18-1.73,6.3-2.53,12.83-3.79,19.25-1.23,6.24-1.57,12.19.39,18.46,1.67,5.37,1.39,11.17,1.17,16.82,0,1.08-.32,2.17-.26,3.26.37,7.09-.65,14-2,21a80.62,80.62,0,0,0-1,26.66,5.57,5.57,0,0,0,2.23,4.05c.74.51,1.37,1.16,2.11,1.68,1.59,1.1,2.78,2.45,2.07,4.49s-2.49,2.39-4.41,2.41c-9.72.13-19,2.2-28.25,5.14-6.39,2-8.72,6.09-9.27,12-.9,9.57-2.25,19.14-2.27,28.75,0,8.6-.91,17.23.27,25.84.5,3.64-.12,7.35.5,11a3.44,3.44,0,0,1-1.18,2.95,41.91,41.91,0,0,1-9.19,2.54,9.48,9.48,0,0,1-9.86-3.69c-1.19-1.59-2.83-1.89-4.67-2.24-5.08-1-10.28-1.37-15.08-3.68-8.07-3.89-11.94-10.91-14.75-18.72-2-5.55-2.68-11.37-3.27-17.21-.38-3.74-2-7.26-2.52-11a34.33,34.33,0,0,1,1.18-14.12,32.52,32.52,0,0,0,1.09-4c1.89-13.25,9.16-24.23,15.3-35.69,6.81-12.73,14.86-24.74,22-37.26,1.84-3.21,2.89-6.77,4.52-10.07,3.14-6.33,6.54-12.51,10.1-18.63,3.9-6.71,6.53-14.08,9.26-21.31a69.45,69.45,0,0,1,9.41-16.84c3.59-4.86,6.64-9.9,8.23-15.75a30.22,30.22,0,0,1,4.59-9c4.93-7.25,10.49-14.09,15.21-21.44,4.81-7.51,11.58-12.78,18.22-18.3,1.55-1.29,1.9-2.43.73-4-3.53-4.85-6-10.32-9.15-15.39a9.92,9.92,0,0,0-2.71-3.16c-4.5-3-6.62-7.57-8.35-12.4a6.46,6.46,0,0,1-.47-2c0-1.57.23-3,1.88-3.73s2.76.05,3.79,1.1c1.45,1.48,2.48,3.37,5.18,4.88-1.07-3.7-.16-6.81-.14-10,0-7.26-.07-14.52,0-21.77,0-3-1.25-5.82-1.45-8.8-.05-.19-.1-.38-.17-.57-1.1-6.26,1.83-9.23,8.25-8.45A20.52,20.52,0,0,1,447,234.73c5.17,4.54,10.48,8.94,14.85,14.27a37.48,37.48,0,0,1,6.38,11.43c2.4,6.87,6.47,13,8.91,19.86a91.4,91.4,0,0,1,3.58,13.21c.68,3.5,1.37,4.05,4.84,3.62a82.35,82.35,0,0,1,23,.63A50.66,50.66,0,0,1,524,302.88a49.35,49.35,0,0,0,18.27,5.35c3.35.31,6.62.85,10,.39a2.9,2.9,0,0,1,1.49.07c5.32,2.32,10.88.87,16.33,1a30,30,0,0,1,12,2.48c3.06,1.39,6.44,1.39,9.63,2.24,5.32,1.42,10.29,3.35,13.7,8a6.24,6.24,0,0,0,3.34,1.87c4.17,1.44,8.24,3.12,12.34,4.71,2.28,1.83,4.6,3.34,7.84,2.77,2.12-.38,3.95,1.24,6,1.48a3.25,3.25,0,0,1,.86.3c1.22.86,2.69,1.26,4,2,.88.55,2.09,1,1.4,2.45" transform="translate(-173.1 -160.32)"/><path id="Path_35" data-name="Path 35" class="cls-3" d="M377.88,590.27a3.29,3.29,0,0,0,.47-2,245.52,245.52,0,0,1-1-27.66c.23-6.85.16-13.72.62-20.56.47-7,1.19-14.06,2.13-21,.64-4.74,3.12-8.23,8.19-9.58,6.08-1.63,11.91-4.26,18.25-4.89,3.88-.39,7.8-.53,11.7-.77.6,0,1.21,0,1.81-.05a1.89,1.89,0,0,0,2-1.48,2,2,0,0,0-.94-2.33,33.62,33.62,0,0,1-3.63-2.64,5.69,5.69,0,0,1-2.46-4.56c-.35-7.75-.78-15.46.58-23.21.72-4.1,1.13-8.25,2.24-12.29a7.12,7.12,0,0,0,.36-2.05c-.16-6.75.5-13.51.12-20.26-.11-1.89-.24-3.77-.3-5.66a14.76,14.76,0,0,0-1.54-6.62,9.78,9.78,0,0,1-1-4.9c0-4.6,1.12-9,1.7-13.55.89-6.93,2.67-13.63,4.11-20.41,1.56-7.39,4.33-14.46,7.17-21.47a2.5,2.5,0,0,1,.44-.78c3.6-4,6.5-8.59,10.9-11.86a15.78,15.78,0,0,1,6.49-2.95,83.55,83.55,0,0,0,16.07-4.91,38.75,38.75,0,0,1,10.51-2.45,95.15,95.15,0,0,1,19.82-.26,10.36,10.36,0,0,1,6.37,3.05,18,18,0,0,0,4.54,3.41,2.18,2.18,0,0,1,.76.48c2.71,3.35,6.56,5.49,9.44,8.67a4.81,4.81,0,0,0,.82.87c4.39,2.7,7.5,6.84,11.45,10a47.4,47.4,0,0,1,6.58,6.93,54.5,54.5,0,0,1,9.1,15A84,84,0,0,1,546,402.75c1.18,6.45,1.93,12.94,2.89,19.41.39,2.65,1.3,5.21,1.82,7.84,2,10.33,4.3,20.62,5.13,31.15a13.9,13.9,0,0,0,2.78,7.71,92.4,92.4,0,0,1,7,10.76c2.35,4.15,6.42,5.93,10.73,7a29.37,29.37,0,0,1,8.41,3.07c3,1.83,6.47,2.18,9.81,2.65a79.75,79.75,0,0,1,11.51,2c3.53,1,6.28,3.25,9.13,5.35l0,0a7.05,7.05,0,0,0,.9,1.14c4.19,3.66,5.47,8.47,5.69,13.75a9.7,9.7,0,0,1-1.84,5.5,190.33,190.33,0,0,1-11.55,19.12,1.07,1.07,0,0,1-1.25.55c-4.47-3.63-7.34-8.61-11-12.95a340.3,340.3,0,0,0-27.84-29.62,13.23,13.23,0,0,0-8.16-3.44A43.21,43.21,0,0,1,547.6,491c-2.7-1.08-5.52-.86-8.32-.73a3.44,3.44,0,0,0-2.82,2c-2.85,4.85-6.66,8.95-10.47,13a64.21,64.21,0,0,1-30.25,18.49,89.7,89.7,0,0,1-22.24,2.78,11.38,11.38,0,0,0-8,3.62,32.88,32.88,0,0,1-15,8.49,14.35,14.35,0,0,0-5.26,2.82c-7.53,5.93-16.27,9.75-24.94,13.57-4.72,2.08-8,4.92-8.53,10.11-.92,9-6.35,15-13.11,20.12A21.31,21.31,0,0,1,386,589.85a15.17,15.17,0,0,0-4.06,1c-1.4.4-2.94,1.06-4.09-.57" transform="translate(-173.1 -160.32)"/></g></g></g><circle id="Border" class="cls-7" cx="260.23" cy="260.63" r="217.86"/><circle id="Border-2" data-name="Border" class="cls-8" cx="260.23" cy="260.63" r="212.83"/></svg>