<svg xmlns="http://www.w3.org/2000/svg" xmlns:xlink="http://www.w3.org/1999/xlink" width="180.72" height="91.4" viewBox="0 0 180.72 91.4">
  <defs>
    <clipPath id="clip-path">
      <rect id="Rectangle_4" data-name="Rectangle 4" width="180.72" height="91.4" fill="none" stroke="#000" stroke-width="1"/>
    </clipPath>
  </defs>
  <g id="Logo_Text" data-name="Logo Text" transform="translate(-60 -82.014)">
    <g id="Logo_Text-2" data-name="Logo Text" transform="translate(60 82.014)">
      <g id="Group_12" data-name="Group 12" transform="translate(0 0)" clip-path="url(#clip-path)">
        <path id="Path_9" data-name="Path 9" d="M103.143,55.964l.057-.344c.935,0,1.873.052,2.8-.009,3.108-.2,6.213-.633,9.32-.641,21.473-.051,42.945-.019,64.418-.013.085,0,.193.046.252.01.25-.158.486-.338.727-.511a3.05,3.05,0,0,0-.73-.539,2.8,2.8,0,0,0-.891-.03c-12.319,0-24.639.083-36.957-.024-12.3-.106-24.617.524-36.909-.489-2.637-.217-5.283-.328-7.919-.572-2.133-.2-2.128-.254-2.271,1.909-.143,2.193-2.885,4.52-5.026,4.222a4.94,4.94,0,0,1-4.443-4.82c.023-1.142-.106-1.274-1.265-1.22-3.242.151-6.482.343-9.719.558-3.063.2-6.12.648-9.18.656-21.131.06-42.262.033-63.392.034a4.6,4.6,0,0,0-1.149.033A3.488,3.488,0,0,0,0,54.71a2.848,2.848,0,0,0,.817.44,8.477,8.477,0,0,0,1.408.031q32.338,0,64.674.026c3.156.008,6.31.332,9.463.535.854.055,1.7.206,2.55.312l.03.283q-4.434.827-8.87,1.653-3.068.567-6.139,1.115c-2.262.407-4.532.783-6.79,1.216-.923.177-1.825.47-2.736.708l.045.455a8.489,8.489,0,0,0,1.657.084c1.216-.168,2.419-.43,3.627-.663,2.678-.519,5.351-1.061,8.033-1.56,2.339-.435,4.684-.837,7.031-1.226,1.328-.22,2.664-.382,4-.57a2.8,2.8,0,0,1-1.249.873q-4.277,1.472-8.571,2.892c-4.007,1.318-8.028,2.59-12.027,3.933-.471.158-1.37-.034-1.217.9a3.51,3.51,0,0,0,1.6-.036c2.634-.844,5.238-1.781,7.865-2.646,3.6-1.186,7.2-2.377,10.835-3.47.946-.284,1.888-.9,3.208-.559-.634.363-1.064.636-1.515.863-2.249,1.129-4.495,2.266-6.757,3.365-4.26,2.069-8.536,4.108-12.789,6.188-.322.157-.525.553-.784.837.421,0,.842.01,1.261.01.036,0,.072-.045.111-.063q9.555-4.647,19.117-9.283a19.491,19.491,0,0,1,1.951-.708.628.628,0,0,1-.231.539c-2.639,1.806-5.272,3.625-7.932,5.4C67.907,69.1,64.117,71.581,60.357,74.1a3.756,3.756,0,0,0-.73.984l.29.278c3.566-1.882,6.683-4.481,10.121-6.565,3.482-2.112,6.636-4.747,10.35-6.513a2.855,2.855,0,0,1-.667.9c-1.462,1.309-2.936,2.605-4.405,3.907q-2.734,2.419-5.469,4.839c-2.178,1.922-4.366,3.831-6.538,5.762-.334.3-.834.668-.348,1.136.127.121.7-.224,1.07-.358.036-.014.06-.059.092-.088,2.011-1.786,4.011-3.585,6.036-5.356q5.351-4.682,10.729-9.336c.3-.261.647-.47.971-.7a.853.853,0,0,1-.178.668c-1.237,1.471-2.472,2.944-3.726,4.4q-5.521,6.4-11.049,12.806c-.325.378-1.163.832-.627,1.291.6.515.975-.383,1.335-.793q3.307-3.75,6.577-7.53c2.294-2.646,4.564-5.314,6.874-7.945a17.957,17.957,0,0,1,1.68-1.506c.087.083.172.166.259.247-.893,1.442-1.754,2.907-2.684,4.324-3.284,5-6.6,9.974-9.879,14.972a6.229,6.229,0,0,0-.495,1.311l.344.216a5.32,5.32,0,0,0,.811-.79c1.348-2.022,2.667-4.064,4-6.1q3.893-5.951,7.8-11.891c.4-.613.906-1.162,1.363-1.74a.788.788,0,0,1,.024.72c-1.549,3.325-3.086,6.654-4.662,9.967-1.7,3.585-3.447,7.151-5.163,10.73a.962.962,0,0,0,.34,1.441c3.657-7.368,6.966-14.823,10.891-21.987a6.125,6.125,0,0,1-.34,1.835C84.239,71.263,83.165,74.9,82.01,78.5c-1.1,3.442-2.3,6.852-3.423,10.288-.078.237.134.57.211.858.252-.191.628-.329.735-.582.279-.662.431-1.376.651-2.064q1.671-5.231,3.353-10.458c.665-2.064,1.328-4.13,2.019-6.185.484-1.438,1.014-2.859,1.524-4.289l.339.088c-.294,1.931-.567,3.864-.888,5.79-.2,1.211-.5,2.407-.717,3.615-.242,1.338-.422,2.687-.668,4.024-.533,2.885-1.1,5.765-1.632,8.65a10.581,10.581,0,0,0-.181,1.779c0,.237.207.476.319.715.2-.19.4-.372.589-.573.048-.053.03-.165.046-.247.41-2.213.811-4.428,1.231-6.64.506-2.672,1.041-5.339,1.536-8.013.372-2.009.677-4.03,1.056-6.038.209-1.1.51-2.19.77-3.284l.283.053q-.29,9.026-.582,18.051c-.009.254-.09.5-.108.76-.126,1.872-.258,3.743-.35,5.618a3.656,3.656,0,0,0,.227.982h.426a31.09,31.09,0,0,0,.584-3.707c.229-5.633.363-11.27.565-16.9.053-1.451.229-2.9.349-4.346a5.364,5.364,0,0,1,.632,2.085c.216,2.289.387,4.583.573,6.875.1,1.275.195,2.551.308,3.825q.471,5.287.961,10.572a3.774,3.774,0,0,0,.26,1.1c.062.148.389.328.5.279a.875.875,0,0,0,.44-.524,2.108,2.108,0,0,0-.058-.754c-.116-.882-.264-1.76-.343-2.643-.077-.85-.036-1.712-.127-2.56-.251-2.323-.6-4.635-.809-6.962-.241-2.632-.374-5.273-.564-7.909-.088-1.23-.2-2.458-.3-3.687l.367-.051q.837,3.446,1.672,6.894c.717,2.976,1.462,5.946,2.138,8.931.526,2.323.942,4.672,1.461,7a10.972,10.972,0,0,0,.725,1.77L98.5,90.6a4.606,4.606,0,0,0,.107-1.3c-.338-1.623-.749-3.231-1.133-4.845-.7-2.933-1.416-5.861-2.094-8.8q-.878-3.8-1.676-7.61a16.816,16.816,0,0,1-.188-1.906l.332-.064c1.335,3.492,2.687,6.979,4,10.48,1.391,3.7,2.741,7.424,4.128,11.13a17.548,17.548,0,0,0,.8,1.605,1.214,1.214,0,0,0,.3-1.565c-.428-1.02-.855-2.041-1.241-3.078q-2.945-7.908-5.861-15.828c-.4-1.077-.719-2.181-1.162-3.539.366.274.5.327.556.425q3.836,7.023,7.653,14.054c1.22,2.252,2.388,4.532,3.624,6.776.143.26.575.362.874.536a2.7,2.7,0,0,0-.046-1c-.5-1.039-1.061-2.044-1.608-3.058-2.676-4.958-5.365-9.909-8.022-14.877-.535-1-.955-2.06-1.427-3.093l.338-.214c.148.207.291.418.442.623,1.777,2.4,3.565,4.8,5.33,7.212q4.081,5.581,8.138,11.183c.1.138.175.328.31.4a4.869,4.869,0,0,0,.778.274,6.606,6.606,0,0,0,0-.8c-.013-.109-.147-.2-.222-.308Q105.65,75.322,99.79,67.224c-.809-1.124-1.514-2.324-2.267-3.488l.2-.156c.176.155.364.3.526.465q5.289,5.493,10.571,10.989c1.894,1.972,3.775,3.957,5.69,5.908.186.188.575.177.869.259-.078-.286-.068-.656-.247-.848q-3.934-4.219-7.915-8.4-3.791-4-7.584-8a5.073,5.073,0,0,1-.533-.84l.266-.2q1.4,1.1,2.8,2.2,5.133,4.042,10.262,8.09c1.605,1.276,3.161,2.617,4.773,3.882.44.345.916.961,1.849.275-6.5-5.523-13.351-10.43-19.574-16.116,3.127,1.633,6.182,3.374,9.2,5.169,3.967,2.355,7.9,4.76,11.87,7.112.252.149.665.029,1,.034-.173-.247-.29-.583-.526-.729-2.968-1.847-5.939-3.689-8.938-5.484-3.115-1.865-6.268-3.666-9.389-5.523a18.94,18.94,0,0,1-1.711-1.3l.144-.25c.918.308,1.862.555,2.75.933,3.923,1.669,7.83,3.374,11.74,5.07q3.461,1.5,6.917,3.01a1.006,1.006,0,0,0,1.482-.348c-7.463-3.5-15.117-6.4-22.438-10.072a17.08,17.08,0,0,1,3.622.611c2.5.681,4.986,1.421,7.483,2.114,1.926.536,3.864,1.023,5.788,1.561s3.824,1.136,5.75,1.651a3.319,3.319,0,0,0,1.167-.128l.011-.423c-1.108-.378-2.2-.81-3.329-1.119-1.888-.518-3.81-.916-5.7-1.437-3.153-.871-6.293-1.784-9.431-2.707-1.95-.575-3.885-1.2-5.826-1.806a4.216,4.216,0,0,1,1.546-.127c2.575.314,5.148.658,7.72.989l10,1.279c.168.021.337.055.5.087,1.545.279,3.086.589,4.64.813.283.04.616-.275.926-.425-.259-.241-.491-.647-.784-.7-1.506-.254-3.026-.422-4.544-.609-1.77-.22-3.544-.421-5.312-.646-3.039-.387-6.079-.765-9.112-1.192-1.195-.17-2.372-.462-3.556-.7M47.077,41.945l-.185-.024c-.32-1.4-.6-2.813-.969-4.2-.872-3.245-1.83-6.467-2.661-9.722-.227-.889-.7-1.048-1.46-1.045-1.207.005-1.451.134-1.716,1.068Q38.275,34.41,36.461,40.8a8.463,8.463,0,0,1-.487,1.034c-.327-1.458-.573-2.618-.849-3.77q-1.087-4.528-2.2-9.048c-.142-.579-.293-1.159-.489-1.723-.2-.59-1.055-.827-1.875-.579-.8.24-.44.72-.309,1.215.467,1.769.878,3.55,1.334,5.321.871,3.38,1.772,6.752,2.63,10.135.388,1.529,1.056,1.982,2.569,1.517a1.3,1.3,0,0,0,.744-.752c1.006-3.471,1.957-6.958,2.944-10.435.3-1.068.673-2.118,1.012-3.176l.278.036c.4,1.463.8,2.924,1.191,4.388q1.2,4.5,2.4,9c.237.9.876,1.01,1.674,1.016.783.005,1.3-.193,1.525-1.016.51-1.888,1.07-3.762,1.6-5.645q.874-3.135,1.722-6.278.569-2.1,1.114-4.2c.111-.42.224-.852-.317-1.1A1.424,1.424,0,0,0,50.7,27.6c-.811,3.176-1.59,6.36-2.389,9.539-.4,1.6-.822,3.2-1.232,4.8M109.24,29.989l.181-.1c.788,1.348,1.585,2.689,2.36,4.046Q114.668,39,117.54,44.065a2.553,2.553,0,0,0,2.919.857c.928-.265.745-1.038.746-1.692.011-4.1.005-8.208,0-12.311,0-1.02.015-2.041-.023-3.059a1.121,1.121,0,0,0-1.225-1.186.922.922,0,0,0-1.05,1.012c-.063,2.475-.151,4.949-.156,7.424-.005,1.834.112,3.668.152,5.5a4.9,4.9,0,0,1-.255,1c-1.079-1.86-2.026-3.472-2.953-5.1q-2.568-4.5-5.119-9.013a2.021,2.021,0,0,0-.221-.314,3.034,3.034,0,0,0-2.637-.45c-.752.294-.6.96-.6,1.534-.015,2.179-.005,4.36-.005,6.541,0,2.992-.011,5.984.008,8.977.006.947.263,1.147,1.114,1.17.817.021,1.034-.425,1-1.131-.013-.342,0-.683,0-1.026V29.989M70.153,17.354a25.539,25.539,0,0,0,1.781-2.47c1.931-3.471,1.608-6.966-.1-10.406A8.549,8.549,0,0,0,57.621,4.03c-1.271,1.829-1.417,3.986-1.68,6.081a7.423,7.423,0,0,0,.358,2.507,8.568,8.568,0,0,0,3.2,5.368,9.286,9.286,0,0,0,7.7,1.3,3.433,3.433,0,0,1,2.475.192c.411.222.825.44,1.234.67.784.443,1.21.376,1.632-.268.46-.7.052-1.134-.49-1.472-.647-.4-1.332-.745-1.892-1.053M138.947,9.8a13.384,13.384,0,0,0-2.075,1.486,4.674,4.674,0,0,0-1.309,4.457,4.148,4.148,0,0,0,3.159,3.334,18.118,18.118,0,0,0,7.736.186c1.183-.186,1.215-.286,1.225-1.521.014-1.879-.006-3.758.006-5.638.009-1.224.031-1.232,1.195-1.284.171-.008.342-.008.513-.009.577-.008,1.01-.19,1.04-.859.033-.742-.423-.92-1.058-.975-1.643-.143-1.642-.158-1.7-1.838-.006-.171,0-.342-.016-.513a.782.782,0,0,0-.824-.788c-1.085-.1-1.433.241-1.47,1.517-.045,1.615-.045,1.617-1.661,1.623a4.731,4.731,0,0,1-.9-.011,10.96,10.96,0,0,1-2.715-.6A2.663,2.663,0,0,1,138.8,4.958a2.8,2.8,0,0,1,2.668-2.377c1.146-.093,2.305-.03,3.457-.036.593,0,1.139-.077,1.186-.843.04-.648-.367-.848-.916-1.019a7.7,7.7,0,0,0-6.821,1.128,4.53,4.53,0,0,0-2.12,4.265,4.219,4.219,0,0,0,2.7,3.725M83.8,36.114c.132-.2.146-.252.177-.273.144-.09.291-.175.438-.259A4.175,4.175,0,0,0,86.576,31.4a4.327,4.327,0,0,0-2.483-3.907,10.517,10.517,0,0,0-3.446-.788c-1.7-.129-3.416-.04-5.125-.034-1.634.005-1.75.116-1.752,1.745q-.009,6.985,0,13.972c0,.513,0,1.026.01,1.539a.949.949,0,0,0,1.034,1.036c.947.054,1.235-.156,1.251-1.139.028-1.794,0-3.589.015-5.384.013-1.134.109-1.224,1.264-1.244.982-.018,1.972.075,2.947-.016,1.84-.173,2.769.78,3.177,2.907.224,1.164.384,2.34.613,3.5a2.573,2.573,0,0,0,.413.931,1.361,1.361,0,0,0,1.739.334c.607-.216.312-.754.188-1.207a17.334,17.334,0,0,1-.734-3.088c-.134-1.715-.453-3.292-1.887-4.443m63.9,9.345a7.037,7.037,0,0,0,3.916-1.028,4.8,4.8,0,0,0,.465-8.179,21.331,21.331,0,0,0-5.438-2.182,2.908,2.908,0,0,1-2.318-2.284,2.68,2.68,0,0,1,1.1-2.919A4.058,4.058,0,0,1,151.468,31a1.342,1.342,0,0,0,1.918,1.01.789.789,0,0,0,.423-.621,5.421,5.421,0,0,0-2.438-4.012,5.9,5.9,0,0,0-4.831-.853,6.5,6.5,0,0,0-3.7,2.048,4.192,4.192,0,0,0-.4,5.105,6.635,6.635,0,0,0,3.584,2.521c1.467.564,3,.994,4.412,1.666,2.07.981,1.489,4.105.245,4.907-1.692,1.093-5.036,1.151-6.5-.9a10.209,10.209,0,0,1-.845-1.71c-.354-.764-1.019-.7-1.652-.583-.725.136-.647.706-.489,1.215a7.388,7.388,0,0,0,.647,1.641c1.334,2.2,3.5,2.83,5.861,3.024m16.716.021c.98.23,2.162-.4,3.328-1.04a4.543,4.543,0,0,0,2.543-3.869,4.386,4.386,0,0,0-2.339-4.49,37.972,37.972,0,0,0-5.1-1.982,2.977,2.977,0,0,1-2.354-2.664c-.094-1.634.363-2.5,1.857-2.966,1.776-.55,3.541-.406,4.668,1.328a10.183,10.183,0,0,1,.7,1.618,1.3,1.3,0,0,0,1.625.627c.618-.167.557-.585.536-1.1a4.39,4.39,0,0,0-1.337-2.7,5.408,5.408,0,0,0-4.408-1.968,8.174,8.174,0,0,0-4.181,1.389,4.47,4.47,0,0,0,.119,7.519,15.26,15.26,0,0,0,2.444,1.078c1.306.514,2.648.942,3.934,1.5a2.555,2.555,0,0,1,1.494,2.735,2.688,2.688,0,0,1-1.722,2.612,5.592,5.592,0,0,1-4.353-.041,3.991,3.991,0,0,1-2.249-2.635,1.3,1.3,0,0,0-1.73-.874c-.916.222-.626.889-.5,1.44a4.187,4.187,0,0,0,.526,1.28c1.413,2.2,3.507,3.127,6.491,3.206M41.115,9.978c0,2.522.009,5.045,0,7.567-.008,1.54.075,1.662,1.652,1.671,2.992.018,5.984.008,8.978.005.255,0,.582.067.751-.062a1.884,1.884,0,0,0,.712-.887c.127-.48-.2-.8-.717-.842-.3-.024-.6-.02-.9-.02-2.394,0-4.789.01-7.182-.009-1.1-.008-1.152-.07-1.164-1.178-.015-1.453.006-2.907,0-4.36,0-.7.245-.937,1-.921,2.432.055,4.866-.006,7.3,0a.764.764,0,0,0,.879-.845c.019-.506-.092-.963-.69-1.053a7.988,7.988,0,0,0-1.151-.057c-2.053-.005-4.1.013-6.157-.008-1.075-.01-1.156-.1-1.181-1.187-.023-.941-.01-1.882-.008-2.821.005-2.316-.187-2.172,2.127-2.166,2.138.005,4.276.016,6.413-.019.991-.016,1.533-.752,1.058-1.487A1.751,1.751,0,0,0,51.55.772C48.6.727,45.65.741,42.7.752,41.258.757,41.125.9,41.119,2.412c-.01,2.522,0,5.044,0,7.566m49.828,25.9c0,2.563-.01,5.126,0,7.69.008,1.276.114,1.383,1.406,1.389,3.076.015,6.153.009,9.229.006,1.339,0,1.716-.188,1.644-.863-.109-1.056-.965-.776-1.589-.784q-3.716-.043-7.433,0c-.814.009-1.163-.286-1.141-1.124.039-1.452.028-2.906,0-4.358-.013-.756.293-1.124,1.061-1.069.3.021.6.058.894.063,2.045.038,4.09.1,6.135.087.863,0,1.183-.445,1.074-1.211s-.662-.8-1.237-.805c-2.265-.006-4.53-.025-6.793.008-.817.013-1.167-.273-1.142-1.113.04-1.323.043-2.649,0-3.972-.029-.855.354-1.131,1.152-1.109,1.152.031,2.306.009,3.46.008,1.325,0,2.651.025,3.973-.016.908-.028,1.26-.49,1.136-1.3-.121-.786-.712-.736-1.267-.736q-4.486-.006-8.972,0c-1.438.005-1.587.161-1.593,1.647-.01,2.521,0,5.041,0,7.562m35.149-.106q0,3.784,0,7.566c0,1.559.055,1.619,1.559,1.624,3.034.009,6.069.015,9.1,0,.639,0,1.554.219,1.569-.806s-.891-.833-1.538-.838c-2.394-.018-4.787,0-7.182-.011-1.37-.005-1.376-.016-1.387-1.334-.009-1.026,0-2.053,0-3.078,0-2.306.018-2.324,2.377-2.081a2.236,2.236,0,0,0,.253.039c1.914-.005,3.828,0,5.742-.028.585-.008.813-.383.81-.936,0-.918-.636-.991-1.32-.991-2.266,0-4.531-.023-6.8.006-.77.01-1.085-.286-1.069-1.051.026-1.239,0-2.478.005-3.718.009-1.387.03-1.408,1.462-1.413,2.309-.008,4.616.018,6.924-.018.941-.014,1.35-.45,1.324-1.2-.03-.9-.686-.837-1.288-.838-2.992,0-5.984-.009-8.977,0-1.407.005-1.56.155-1.566,1.541-.013,2.521,0,5.044,0,7.565m-105.846-9.1c-1.3-.011-1.519.171-1.95,1.344-1.323,3.6-2.663,7.2-3.988,10.8C13.7,40.459,13.1,42.1,12.522,43.755c-.3.86-.035,1.151.871,1.216,1.069.079,1.26-.745,1.521-1.43.5-1.314.961-2.648,1.354-4a1.246,1.246,0,0,1,1.4-1.019c1.283.019,2.566.006,3.849.006,1.832,0,1.835,0,2.424,1.712.443,1.29.862,2.59,1.318,3.877a1.528,1.528,0,0,0,2.015.791c.854-.322.366-.956.224-1.4-.355-1.136-.827-2.235-1.231-3.355-.883-2.443-1.749-4.893-2.63-7.336-.594-1.644-1.188-3.29-1.814-4.923-.285-.744-.662-1.438-1.571-1.224M70.374,44.651c-1.222-3.4-2.409-6.718-3.6-10.031-.838-2.323-1.7-4.635-2.526-6.962-.324-.914-1.007-1.019-1.837-1a1.438,1.438,0,0,0-1.516,1.093c-.661,1.936-1.355,3.86-2.069,5.776-1.262,3.392-2.559,6.77-3.821,10.16-.368.986-.161,1.247.847,1.283a1.161,1.161,0,0,0,1.348-.874c.51-1.578,1.139-3.118,1.638-4.7a1.081,1.081,0,0,1,1.208-.867c1.667.013,3.334.02,5,0a.993.993,0,0,1,1.089.824c.477,1.456,1.015,2.893,1.565,4.323s.951,1.575,2.678.981m6.679-36.6h.008c0,1.923-.129,3.86.048,5.767a7.885,7.885,0,0,0,1.105,3.314c1.293,2.078,3.418,2.462,5.718,2.416,3.939-.082,6.239-2.272,6.282-6.19.04-3.72.016-7.44.019-11.16,0-.214-.009-.427-.023-.641-.04-.594-.41-.8-.952-.8-.56,0-1.043.119-1.124.779A9.768,9.768,0,0,0,88.1,2.689c-.005,3.506.055,7.013-.038,10.517-.043,1.6-.481,3.191-2.136,3.941a5.2,5.2,0,0,1-4.565-.028,3.89,3.89,0,0,1-2.168-3.769c-.04-3.462-.014-6.925-.016-10.389,0-.386.016-.771-.011-1.154C79.1.928,78.8.706,77.938.754c-.766.044-.887.531-.886,1.142V8.052m50.357-2.808a5.3,5.3,0,0,0-1.22-3.23c-2.115-2.653-6.351-2.417-8.655-.84a4.642,4.642,0,0,0-2.11,4.147,4.291,4.291,0,0,0,2.712,3.88,19.19,19.19,0,0,0,2.154.808c1.171.4,2.394.683,3.515,1.191a3.558,3.558,0,0,1,.963,6.087c-2.193,1.629-6.758,1.358-8.03-1.865-.126-.318-.21-.745-.453-.9a2.022,2.022,0,0,0-1.252-.318c-.559.079-.4.6-.24.928a10.517,10.517,0,0,0,1.354,2.428c2.182,2.434,7.414,2.676,9.91.545a5,5,0,0,0,.337-7.193,8.6,8.6,0,0,0-3.819-1.977,24.467,24.467,0,0,1-3.5-1.207,3.161,3.161,0,0,1-1.046-5.14,4.616,4.616,0,0,1,7.525,1.588c.47,1.2.432,1.216,1.859,1.068M96.6,7.7h0c0,1.966-.079,3.936.02,5.9.117,2.28.838,4.271,3.144,5.311a9.37,9.37,0,0,0,4.145.592c3.608-.065,5.91-2.207,5.988-5.791.088-4.016.023-8.035.023-12.052,0-.128.041-.3-.023-.377-.211-.265-.427-.643-.706-.712-.513-.127-.768.249-.785.755-.013.342-.016.683-.016,1.025,0,3.2.023,6.41-.015,9.615a15.192,15.192,0,0,1-.314,2.921c-.6,2.843-4.106,4.233-7.19,2.913a3.766,3.766,0,0,1-2.417-2.929,19.443,19.443,0,0,1-.308-3.05c-.038-3.2-.011-6.41-.016-9.616a3.058,3.058,0,0,0-.082-1.137A1.026,1.026,0,0,0,97.306.57a.845.845,0,0,0-.628.474A2.867,2.867,0,0,0,96.6,2.056c-.005,1.881,0,3.761,0,5.642M90.4,50.216a3.811,3.811,0,0,0-4.041,3.559,4.3,4.3,0,0,0,3.919,4.008,3.776,3.776,0,0,0,3.82-3.913,3.5,3.5,0,0,0-3.7-3.654" transform="translate(0 0)" fill="#fff" stroke="#000" stroke-width="1"/>
        <path id="Path_10" data-name="Path 10" d="M103.141,45.214c1.185.236,2.363.53,3.557.7,3.032.428,6.072.806,9.111,1.193,1.77.225,3.542.425,5.312.644,1.517.188,3.039.356,4.545.609.291.049.524.455.783.7-.309.151-.643.465-.926.425-1.554-.222-3.094-.533-4.639-.813-.168-.03-.337-.065-.5-.087q-5-.641-9.994-1.278c-2.574-.33-5.145-.675-7.722-.989a4.244,4.244,0,0,0-1.546.126c1.942.6,3.877,1.232,5.826,1.806,3.138.925,6.278,1.838,9.431,2.708,1.887.521,3.809.918,5.7,1.436,1.128.309,2.221.742,3.33,1.119,0,.142-.009.283-.013.425a3.346,3.346,0,0,1-1.167.128c-1.926-.516-3.829-1.114-5.75-1.652s-3.863-1.025-5.787-1.56c-2.5-.695-4.983-1.435-7.484-2.115a17.146,17.146,0,0,0-3.622-.611C108.9,51.8,116.555,54.693,124.018,58.2a1,1,0,0,1-1.481.347q-3.46-1.5-6.917-3.01c-3.912-1.695-7.818-3.4-11.74-5.069-.888-.378-1.833-.626-2.751-.935-.048.084-.1.167-.144.251a18.537,18.537,0,0,0,1.712,1.294c3.119,1.858,6.272,3.659,9.387,5.523,3,1.8,5.969,3.639,8.939,5.486.235.146.353.48.525.727-.338-.005-.75.116-1-.034-3.967-2.352-7.9-4.757-11.868-7.111-3.024-1.8-6.079-3.536-9.205-5.169,6.223,5.684,13.073,10.591,19.574,16.116-.932.686-1.408.069-1.848-.275-1.614-1.265-3.169-2.607-4.775-3.882-3.411-2.71-6.839-5.4-10.26-8.09q-1.4-1.1-2.8-2.2c-.088.068-.177.134-.266.2a5.18,5.18,0,0,0,.533.84c2.52,2.672,5.057,5.33,7.584,8q3.97,4.187,7.915,8.4c.18.192.17.56.249.848-.3-.082-.685-.07-.871-.259-1.916-1.951-3.8-3.936-5.69-5.908q-5.282-5.5-10.571-10.989c-.162-.168-.349-.31-.526-.465l-.2.156c.754,1.164,1.458,2.364,2.269,3.488q5.841,8.112,11.73,16.191c.075.1.21.2.222.307a6.361,6.361,0,0,1,0,.8,4.909,4.909,0,0,1-.778-.273c-.136-.074-.21-.263-.31-.4q-4.068-5.592-8.138-11.184c-1.764-2.412-3.552-4.807-5.33-7.212-.151-.2-.294-.415-.441-.622l-.339.212c.472,1.033.892,2.094,1.427,3.093,2.657,4.968,5.346,9.92,8.022,14.878.546,1.014,1.113,2.019,1.608,3.058a2.642,2.642,0,0,1,.046,1c-.3-.175-.731-.276-.874-.538-1.236-2.242-2.4-4.524-3.623-6.776Q99.2,61.975,95.36,54.958c-.054-.1-.192-.151-.558-.426.443,1.359.766,2.463,1.162,3.54q2.913,7.92,5.861,15.828c.387,1.035.813,2.058,1.241,3.076a1.215,1.215,0,0,1-.3,1.566,17.553,17.553,0,0,1-.8-1.605c-1.387-3.707-2.736-7.427-4.128-11.131-1.315-3.5-2.667-6.987-4-10.48l-.332.065a17.088,17.088,0,0,0,.188,1.9q.8,3.814,1.676,7.61c.678,2.938,1.4,5.868,2.094,8.8.386,1.613.8,3.221,1.133,4.844a4.554,4.554,0,0,1-.107,1.3l-.382.078a10.965,10.965,0,0,1-.724-1.77c-.52-2.325-.936-4.674-1.462-7-.676-2.985-1.419-5.956-2.138-8.931q-.831-3.446-1.672-6.893l-.366.05c.1,1.229.209,2.457.3,3.687.188,2.637.323,5.278.563,7.91.214,2.325.558,4.639.809,6.962.092.848.05,1.708.127,2.559.079.884.229,1.762.343,2.643a2.081,2.081,0,0,1,.058.754.883.883,0,0,1-.438.525c-.116.049-.442-.131-.5-.279a3.834,3.834,0,0,1-.26-1.1q-.494-5.285-.96-10.573c-.114-1.274-.2-2.55-.308-3.824-.187-2.293-.357-4.586-.574-6.876a5.358,5.358,0,0,0-.632-2.084c-.119,1.448-.3,2.894-.349,4.345-.2,5.635-.337,11.272-.565,16.906a31.13,31.13,0,0,1-.584,3.707H88.35a3.707,3.707,0,0,1-.229-.982c.093-1.873.225-3.745.352-5.616.016-.255.1-.506.107-.761q.3-9.026.582-18.051l-.283-.053c-.26,1.094-.56,2.181-.77,3.285-.379,2.007-.685,4.03-1.056,6.038-.495,2.674-1.03,5.341-1.536,8.013-.42,2.211-.822,4.426-1.231,6.639-.015.084,0,.2-.046.249-.185.2-.391.383-.589.572-.112-.237-.322-.477-.318-.714a10.464,10.464,0,0,1,.18-1.78c.534-2.884,1.1-5.763,1.632-8.649.247-1.337.427-2.686.668-4.024.219-1.208.515-2.4.717-3.617.322-1.924.594-3.859.888-5.788l-.339-.088c-.509,1.428-1.039,2.85-1.522,4.287-.692,2.056-1.354,4.122-2.02,6.187q-1.683,5.227-3.351,10.458c-.22.687-.373,1.4-.652,2.063-.107.252-.481.392-.734.583-.078-.289-.289-.621-.212-.859,1.122-3.436,2.32-6.846,3.423-10.287,1.156-3.608,2.23-7.241,3.336-10.863a6.133,6.133,0,0,0,.34-1.837C81.76,62.219,78.451,69.674,74.794,77.04a.961.961,0,0,1-.34-1.44c1.716-3.579,3.46-7.145,5.164-10.73,1.574-3.313,3.113-6.643,4.662-9.967a.793.793,0,0,0-.025-.72c-.456.578-.958,1.126-1.363,1.739Q78.976,61.856,75.1,67.814c-1.332,2.034-2.649,4.075-4,6.1a5.277,5.277,0,0,1-.813.791l-.343-.217a6.312,6.312,0,0,1,.494-1.31c3.281-5,6.595-9.977,9.879-14.974.932-1.417,1.793-2.88,2.686-4.323l-.26-.247a18.286,18.286,0,0,0-1.68,1.5c-2.31,2.632-4.579,5.3-6.874,7.947q-3.275,3.776-6.576,7.528c-.362.41-.734,1.308-1.335.793-.538-.46.3-.912.627-1.291Q72.416,63.7,77.952,57.306c1.255-1.456,2.49-2.928,3.726-4.4a.861.861,0,0,0,.18-.67c-.325.234-.671.443-.972.7q-5.372,4.66-10.729,9.336c-2.024,1.771-4.025,3.57-6.035,5.356-.033.028-.057.074-.093.088-.368.134-.943.479-1.069.357-.486-.467.014-.839.347-1.136,2.172-1.929,4.36-3.84,6.54-5.761q2.738-2.416,5.468-4.84c1.47-1.3,2.944-2.6,4.405-3.907a2.845,2.845,0,0,0,.667-.9c-3.713,1.765-6.866,4.4-10.348,6.512-3.438,2.085-6.556,4.684-10.122,6.566l-.29-.279a3.749,3.749,0,0,1,.73-.982c3.76-2.524,7.55-5,11.314-7.517,2.659-1.778,5.291-3.6,7.93-5.4a.627.627,0,0,0,.231-.538,19.184,19.184,0,0,0-1.951.708q-9.566,4.622-19.117,9.282c-.038.019-.073.063-.111.063-.42,0-.84-.005-1.26-.009.258-.285.462-.68.783-.837,4.255-2.081,8.529-4.119,12.789-6.189,2.262-1.1,4.508-2.235,6.757-3.364.451-.227.881-.5,1.515-.863-1.32-.345-2.261.274-3.208.559C72.4,50.338,68.8,51.529,65.2,52.713c-2.628.864-5.231,1.8-7.865,2.646a3.522,3.522,0,0,1-1.6.038c-.153-.933.746-.742,1.217-.9,4-1.343,8.021-2.614,12.027-3.932q4.3-1.413,8.571-2.892A2.793,2.793,0,0,0,78.8,46.8c-1.332.188-2.668.352-3.995.572-2.348.388-4.693.79-7.031,1.226-2.682.5-5.356,1.041-8.035,1.56-1.206.234-2.411.495-3.627.663a8.474,8.474,0,0,1-1.656-.085c-.015-.151-.031-.3-.046-.453.912-.24,1.813-.531,2.736-.708,2.259-.433,4.527-.81,6.791-1.216q3.069-.55,6.138-1.117,4.437-.82,8.871-1.653c-.011-.094-.021-.187-.031-.281-.849-.107-1.7-.256-2.549-.312-3.153-.2-6.309-.529-9.463-.535q-32.338-.072-64.676-.026A8.618,8.618,0,0,1,.815,44.4,2.873,2.873,0,0,1,0,43.96a3.467,3.467,0,0,1,.868-.535,4.6,4.6,0,0,1,1.149-.033c21.13,0,42.262.025,63.392-.034,3.06-.009,6.119-.452,9.18-.656,3.238-.215,6.478-.408,9.719-.558,1.161-.054,1.288.077,1.265,1.22a4.938,4.938,0,0,0,4.443,4.819c2.142.3,4.883-2.029,5.027-4.221.142-2.164.137-2.108,2.271-1.909,2.634.244,5.281.353,7.919.57,12.29,1.014,24.6.383,36.908.49,12.318.106,24.637.024,36.957.024a2.759,2.759,0,0,1,.891.03,3.031,3.031,0,0,1,.731.539c-.242.172-.479.353-.729.51-.059.038-.167-.01-.253-.01-21.472-.006-42.945-.039-64.418.014-3.107.008-6.212.438-9.32.639-.931.06-1.869.01-2.8.01l-.057.344" transform="translate(0 10.75)" fill="#1a1818" stroke="#000" stroke-width="1"/>
        <path id="Path_11" data-name="Path 11" d="M40.947,36.516c.411-1.6.83-3.2,1.232-4.8.8-3.178,1.578-6.363,2.389-9.541a1.427,1.427,0,0,1,1.967-.855c.54.244.427.677.317,1.1q-.548,2.1-1.114,4.2-.854,3.141-1.722,6.278c-.525,1.883-1.085,3.757-1.6,5.645-.222.822-.742,1.021-1.525,1.016-.8-.005-1.437-.119-1.674-1.016q-1.187-4.5-2.4-9c-.392-1.465-.794-2.926-1.191-4.388l-.278-.038c-.339,1.059-.71,2.107-1.012,3.177C33.356,31.761,32.4,35.25,31.4,38.721a1.293,1.293,0,0,1-.744.751c-1.512.466-2.181.014-2.569-1.517-.858-3.382-1.76-6.753-2.63-10.134-.456-1.77-.867-3.554-1.334-5.32-.131-.5-.491-.976.309-1.217.82-.245,1.671-.009,1.875.582.2.562.347,1.143.489,1.722q1.108,4.522,2.2,9.048c.276,1.152.523,2.313.849,3.77a8.552,8.552,0,0,0,.487-1.034q1.824-6.386,3.627-12.778c.265-.933.509-1.061,1.716-1.066.759,0,1.232.156,1.46,1.045.832,3.255,1.789,6.476,2.661,9.72.372,1.387.648,2.8.969,4.2.062.008.123.016.185.023" transform="translate(6.13 5.428)" fill="#1a1818" stroke="#000" stroke-width="1"/>
        <path id="Path_12" data-name="Path 12" d="M87.4,24.56V37.379c0,.342-.014.685,0,1.026.029.706-.188,1.152-1.006,1.131-.85-.023-1.108-.222-1.113-1.17-.02-2.992-.008-5.984-.008-8.978,0-2.179-.011-4.36,0-6.54.005-.574-.148-1.24.6-1.534a3.035,3.035,0,0,1,2.637.45,2.021,2.021,0,0,1,.221.314q2.561,4.505,5.119,9.013c.926,1.623,1.873,3.233,2.953,5.1a4.9,4.9,0,0,0,.255-1c-.04-1.835-.157-3.669-.153-5.5.006-2.475.094-4.949.157-7.424a.922.922,0,0,1,1.05-1.012,1.121,1.121,0,0,1,1.225,1.186c.036,1.018.021,2.039.023,3.058,0,4.1.009,8.208,0,12.312,0,.654.182,1.427-.746,1.691a2.553,2.553,0,0,1-2.921-.855q-2.881-5.063-5.758-10.127c-.774-1.357-1.573-2.7-2.359-4.046l-.181.1" transform="translate(21.843 5.428)" fill="#1a1818" stroke="#000" stroke-width="1"/>
        <path id="Path_13" data-name="Path 13" d="M58.749,17.267c.56.309,1.245.651,1.891,1.054.543.338.951.774.491,1.472-.423.642-.848.711-1.633.268-.407-.23-.822-.447-1.234-.67A3.43,3.43,0,0,0,55.79,19.2a9.293,9.293,0,0,1-7.7-1.3,8.572,8.572,0,0,1-3.2-5.369,7.414,7.414,0,0,1-.358-2.507c.263-2.094.407-4.251,1.678-6.08a8.55,8.55,0,0,1,14.216.448c1.7,3.439,2.027,6.935.1,10.4a25.218,25.218,0,0,1-1.78,2.47m.712-7.345A23.1,23.1,0,0,0,58.7,6.217C57.285,2.462,53.98,1.6,50.546,2.937c-2.31.9-3.158,3.133-3.506,5.4a10.635,10.635,0,0,0,.933,6.08c1.578,3.5,6.467,4.02,8.812,1.953a8,8,0,0,0,2.676-6.449" transform="translate(11.404 0.085)" fill="#1a1818" stroke="#000" stroke-width="1"/>
        <path id="Path_14" data-name="Path 14" d="M111.327,9.733a4.216,4.216,0,0,1-2.7-3.723,4.529,4.529,0,0,1,2.12-4.265A7.7,7.7,0,0,1,117.57.617c.549.171.956.371.916,1.019-.046.766-.593.839-1.186.843-1.152.006-2.311-.057-3.457.036a2.8,2.8,0,0,0-2.668,2.377A2.661,2.661,0,0,0,112.48,8.3a10.961,10.961,0,0,0,2.715.605,4.95,4.95,0,0,0,.9.011c1.615-.008,1.615-.008,1.661-1.624.036-1.275.384-1.617,1.47-1.516a.782.782,0,0,1,.824.788c.014.17.01.342.016.513.055,1.68.054,1.693,1.7,1.838.634.055,1.09.232,1.058.975-.03.67-.464.852-1.04.859-.171,0-.342,0-.513.009-1.163.052-1.186.06-1.195,1.283-.013,1.879.008,3.76-.006,5.639-.01,1.235-.041,1.335-1.225,1.521a18.118,18.118,0,0,1-7.736-.186,4.145,4.145,0,0,1-3.158-3.334,4.671,4.671,0,0,1,1.308-4.457,13.473,13.473,0,0,1,2.075-1.487m6.43,4.32h-.01c0-.809,0-1.618,0-2.427,0-.477-.151-.827-.711-.862a9.634,9.634,0,0,0-5.3,1.048,2.946,2.946,0,0,0-1.392,3.4,2.46,2.46,0,0,0,2.041,2.04,8.539,8.539,0,0,0,4.164.2c1.172-.322,1.2-.242,1.208-1.489.006-.638,0-1.278,0-1.916" transform="translate(27.621 0.066)" fill="#1a1818" stroke="#000" stroke-width="1"/>
        <path id="Path_15" data-name="Path 15" d="M68.752,30.683c1.433,1.151,1.752,2.728,1.888,4.443a17.335,17.335,0,0,0,.734,3.088c.122.453.417.991-.19,1.207a1.361,1.361,0,0,1-1.737-.334,2.564,2.564,0,0,1-.415-.931c-.229-1.163-.389-2.339-.613-3.5-.408-2.127-1.337-3.08-3.177-2.907-.974.092-1.965,0-2.947.016-1.154.02-1.251.109-1.262,1.244-.019,1.8.013,3.59-.016,5.384-.015.984-.3,1.193-1.25,1.139a.95.95,0,0,1-1.035-1.036c-.009-.513-.01-1.026-.01-1.539q0-6.987,0-13.972c0-1.629.118-1.74,1.754-1.745,1.708-.006,3.426-.1,5.125.034a10.517,10.517,0,0,1,3.444.788,4.33,4.33,0,0,1,2.485,3.907,4.177,4.177,0,0,1-2.164,4.187c-.147.084-.3.168-.438.259-.031.02-.046.067-.178.273m-4.467-1.207v-.018c.77,0,1.541.04,2.308-.009a2.853,2.853,0,0,0,2.58-3.105,2.767,2.767,0,0,0-2.551-2.987c-1.535-.083-3.076-.039-4.616-.058-.611-.006-.976.22-.972.891q.013,2.18,0,4.361c0,.649.313.932.943.926.77-.006,1.539,0,2.309,0" transform="translate(15.043 5.431)" fill="#1a1818" stroke="#000" stroke-width="1"/>
        <path id="Path_16" data-name="Path 16" d="M118.92,40.09c-2.364-.193-4.527-.828-5.86-3.022a7.354,7.354,0,0,1-.648-1.641c-.157-.51-.236-1.08.49-1.216.632-.117,1.3-.181,1.651.584a10.307,10.307,0,0,0,.845,1.71c1.47,2.05,4.812,1.992,6.506.9,1.244-.8,1.824-3.926-.246-4.908-1.414-.671-2.943-1.1-4.41-1.666a6.635,6.635,0,0,1-3.584-2.52,4.193,4.193,0,0,1,.4-5.106,6.5,6.5,0,0,1,3.706-2.046,5.9,5.9,0,0,1,4.831.853,5.417,5.417,0,0,1,2.437,4.012.792.792,0,0,1-.422.621,1.342,1.342,0,0,1-1.918-1.011,4.059,4.059,0,0,0-6.052-2.136,2.68,2.68,0,0,0-1.1,2.921,2.909,2.909,0,0,0,2.316,2.284,21.294,21.294,0,0,1,5.439,2.182,4.8,4.8,0,0,1-.466,8.178,7.024,7.024,0,0,1-3.916,1.028" transform="translate(28.771 5.367)" fill="#1a1818" stroke="#000" stroke-width="1"/>
        <path id="Path_17" data-name="Path 17" d="M132.34,40.124c-2.983-.079-5.077-1.007-6.491-3.206a4.219,4.219,0,0,1-.526-1.28c-.129-.55-.42-1.217.5-1.44a1.3,1.3,0,0,1,1.73.874,3.99,3.99,0,0,0,2.249,2.634,5.586,5.586,0,0,0,4.353.043,2.688,2.688,0,0,0,1.722-2.612,2.557,2.557,0,0,0-1.494-2.736c-1.286-.556-2.628-.985-3.934-1.5A15.154,15.154,0,0,1,128,29.825a4.469,4.469,0,0,1-.119-7.518,8.176,8.176,0,0,1,4.181-1.391,5.41,5.41,0,0,1,4.408,1.97,4.38,4.38,0,0,1,1.337,2.7c.02.515.082.933-.536,1.1a1.3,1.3,0,0,1-1.626-.628,10.17,10.17,0,0,0-.7-1.617c-1.127-1.734-2.892-1.878-4.668-1.328-1.494.462-1.951,1.332-1.857,2.966a2.977,2.977,0,0,0,2.354,2.664,37.822,37.822,0,0,1,5.1,1.982,4.386,4.386,0,0,1,2.338,4.49,4.543,4.543,0,0,1-2.543,3.869c-1.166.642-2.348,1.27-3.328,1.04" transform="translate(32.068 5.355)" fill="#1a1818" stroke="#000" stroke-width="1"/>
        <path id="Path_18" data-name="Path 18" d="M32.731,9.827c0-2.522-.006-5.045,0-7.567C32.741.748,32.874.606,34.316.6c2.95-.01,5.9-.025,8.849.021a1.746,1.746,0,0,1,1.288.53c.475.734-.068,1.471-1.059,1.487-2.137.035-4.275.024-6.412.018-2.315-.005-2.123-.149-2.128,2.166,0,.941-.015,1.882.008,2.821.026,1.085.107,1.178,1.182,1.188,2.051.019,4.1,0,6.155.008a7.98,7.98,0,0,1,1.151.057c.6.088.708.545.691,1.053a.763.763,0,0,1-.881.844c-2.433-.009-4.868.054-7.3,0-.759-.018-1.009.222-1,.921.01,1.453-.013,2.907,0,4.36.011,1.108.063,1.17,1.163,1.178,2.394.019,4.789.006,7.183.009.3,0,.6,0,.9.02.515.04.844.361.717.842a1.89,1.89,0,0,1-.714.886c-.168.128-.495.062-.751.062-2.992,0-5.984.014-8.978,0-1.577-.01-1.658-.131-1.651-1.671.013-2.522,0-5.045,0-7.567" transform="translate(8.384 0.151)" fill="#1a1818" stroke="#000" stroke-width="1"/>
        <path id="Path_19" data-name="Path 19" d="M72.4,30.441c0-2.521-.008-5.041,0-7.562.005-1.486.155-1.641,1.592-1.647q4.486-.015,8.972,0c.556,0,1.148-.05,1.269.736.124.809-.227,1.271-1.136,1.3-1.324.041-2.649.015-3.973.016-1.153,0-2.308.024-3.461-.008-.8-.021-1.18.254-1.151,1.109.044,1.323.04,2.649,0,3.973-.025.839.325,1.124,1.142,1.112,2.264-.033,4.529-.014,6.792-.008.577,0,1.132.052,1.239.805s-.211,1.208-1.074,1.212c-2.045.008-4.091-.05-6.136-.088-.3-.005-.6-.041-.893-.063-.769-.055-1.075.313-1.061,1.069.024,1.452.035,2.906-.005,4.358-.023.838.328,1.133,1.141,1.124q3.718-.04,7.434,0c.623.008,1.479-.273,1.589.784.07.675-.305.862-1.646.863-3.076,0-6.152.009-9.228-.006-1.291-.006-1.4-.113-1.406-1.389-.014-2.564,0-5.126,0-7.69" transform="translate(18.546 5.437)" fill="#1a1818" stroke="#000" stroke-width="1"/>
        <path id="Path_20" data-name="Path 20" d="M100.378,30.336c0-2.522-.009-5.044,0-7.566.008-1.386.16-1.535,1.566-1.54,2.992-.013,5.984-.008,8.977,0,.6,0,1.257-.06,1.288.838.026.75-.383,1.186-1.324,1.2-2.308.035-4.615.01-6.924.018-1.431.005-1.453.026-1.462,1.413-.008,1.24.021,2.48-.005,3.718-.015.765.3,1.061,1.069,1.051,2.265-.029,4.53-.009,6.8-.008.685,0,1.318.074,1.32.991,0,.554-.225.93-.81.937-1.913.023-3.828.023-5.741.028a2.529,2.529,0,0,1-.254-.039c-2.358-.242-2.378-.225-2.377,2.081,0,1.025-.005,2.051,0,3.078.011,1.318.016,1.329,1.387,1.334,2.394.01,4.787-.006,7.182.011.647.005,1.553-.192,1.538.837s-.93.8-1.569.808c-3.035.018-6.069.013-9.1,0-1.5,0-1.555-.064-1.559-1.623q-.008-3.784,0-7.566" transform="translate(25.714 5.436)" fill="#1a1818" stroke="#000" stroke-width="1"/>
        <path id="Path_21" data-name="Path 21" d="M17.717,21.238c.908-.215,1.285.48,1.57,1.225.626,1.632,1.22,3.277,1.814,4.923.882,2.443,1.747,4.892,2.63,7.335.4,1.122.876,2.22,1.232,3.355.141.45.629,1.083-.224,1.4a1.528,1.528,0,0,1-2.016-.791c-.456-1.286-.873-2.586-1.318-3.877-.588-1.711-.593-1.71-2.424-1.711-1.283,0-2.566.013-3.849-.008a1.247,1.247,0,0,0-1.4,1.019c-.393,1.35-.85,2.686-1.353,4-.263.683-.452,1.507-1.522,1.43-.906-.067-1.172-.357-.871-1.217.58-1.652,1.181-3.3,1.786-4.939,1.327-3.6,2.666-7.2,3.988-10.8.431-1.175.654-1.357,1.951-1.345M17.6,24.249l-.275.038c-.809,2.245-1.618,4.491-2.509,6.96,1.452,0,2.716.021,3.98-.006,1.046-.021,1.25-.256.938-1.236-.45-1.412-.986-2.8-1.5-4.189-.193-.529-.422-1.045-.636-1.566" transform="translate(2.529 5.43)" fill="#1a1818" stroke="#000" stroke-width="1"/>
        <path id="Path_22" data-name="Path 22" d="M59.191,39.214c-1.726.594-2.13.443-2.678-.98s-1.088-2.867-1.564-4.323a.992.992,0,0,0-1.089-.824c-1.667.021-3.334.013-5,0a1.084,1.084,0,0,0-1.21.868c-.5,1.582-1.128,3.12-1.638,4.7a1.161,1.161,0,0,1-1.348.874c-1.006-.035-1.213-.3-.847-1.283,1.264-3.39,2.56-6.77,3.823-10.16.714-1.917,1.408-3.841,2.068-5.777a1.438,1.438,0,0,1,1.517-1.092c.829-.015,1.511.089,1.837,1,.824,2.326,1.687,4.639,2.525,6.96,1.2,3.314,2.383,6.63,3.6,10.031M48.637,31.22c1.721,0,3.117.01,4.511-.005.485-.005.735-.305.578-.763-.727-2.112-1.487-4.213-2.235-6.317l-.269.009L48.637,31.22" transform="translate(11.182 5.435)" fill="#1a1818" stroke="#000" stroke-width="1"/>
        <path id="Path_23" data-name="Path 23" d="M61.347,7.9V1.743c0-.611.118-1.1.884-1.141.862-.049,1.161.173,1.224,1.053.028.383.013.77.013,1.154,0,3.463-.025,6.927.015,10.39a3.893,3.893,0,0,0,2.168,3.767,5.2,5.2,0,0,0,4.565.028c1.656-.749,2.093-2.338,2.135-3.941.094-3.5.033-7.011.039-10.517a9.768,9.768,0,0,1,.038-1.152c.08-.659.563-.783,1.123-.779.544,0,.912.206.953.8.013.212.021.426.021.639,0,3.721.023,7.44-.019,11.16-.043,3.918-2.342,6.109-6.282,6.19-2.3.046-4.424-.338-5.717-2.416A7.887,7.887,0,0,1,61.4,13.667c-.176-1.907-.048-3.843-.048-5.767Z" transform="translate(15.706 0.152)" fill="#1a1818" stroke="#000" stroke-width="1"/>
        <path id="Path_24" data-name="Path 24" d="M104.029,5.244c-1.427.148-1.389.134-1.858-1.068a4.617,4.617,0,0,0-7.526-1.588,3.16,3.16,0,0,0,1.048,5.14,24.45,24.45,0,0,0,3.5,1.207,8.581,8.581,0,0,1,3.819,1.978,5,5,0,0,1-.335,7.192c-2.5,2.13-7.729,1.889-9.911-.545a10.56,10.56,0,0,1-1.353-2.428c-.162-.329-.32-.849.239-.928a2.03,2.03,0,0,1,1.252.318c.244.155.329.582.453.9,1.271,3.223,5.836,3.495,8.03,1.865a3.558,3.558,0,0,0-.963-6.087c-1.121-.507-2.343-.789-3.514-1.191A19.118,19.118,0,0,1,94.755,9.2a4.291,4.291,0,0,1-2.712-3.88,4.642,4.642,0,0,1,2.11-4.147c2.3-1.577,6.541-1.813,8.655.84a5.293,5.293,0,0,1,1.22,3.23" transform="translate(23.38 0)" fill="#7fa4d3"/>
        <path id="Path_25" data-name="Path 25" d="M76.907,7.588c0-1.881,0-3.761,0-5.642A2.867,2.867,0,0,1,76.983.934.843.843,0,0,1,77.61.46a1.03,1.03,0,0,1,.749.491,3.084,3.084,0,0,1,.082,1.137c0,3.206-.023,6.412.016,9.616a19.44,19.44,0,0,0,.307,3.05,3.769,3.769,0,0,0,2.418,2.929c3.084,1.32,6.59-.07,7.189-2.912a15.114,15.114,0,0,0,.314-2.921c.039-3.206.015-6.41.016-9.616,0-.342,0-.683.015-1.025.019-.506.273-.882.785-.755.28.069.495.447.707.712.064.08.023.249.023.377,0,4.017.064,8.036-.023,12.052-.079,3.584-2.38,5.726-5.988,5.791a9.371,9.371,0,0,1-4.145-.592c-2.306-1.04-3.029-3.031-3.144-5.311-.1-1.961-.021-3.931-.021-5.9Z" transform="translate(19.695 0.11)" fill="#7fa4d3"/>
        <path id="Path_26" data-name="Path 26" d="M72.785,39.975a3.5,3.5,0,0,1,3.7,3.654,3.776,3.776,0,0,1-3.82,3.913,4.3,4.3,0,0,1-3.919-4.008,3.811,3.811,0,0,1,4.041-3.559" transform="translate(17.611 10.24)" fill="#1a1818" stroke="#000" stroke-width="1"/>
        <path id="Path_27" data-name="Path 27" d="M58.969,9.512a8,8,0,0,1-2.676,6.449c-2.345,2.066-7.234,1.551-8.812-1.953a10.635,10.635,0,0,1-.933-6.08c.348-2.269,1.2-4.5,3.506-5.4,3.434-1.335,6.739-.475,8.156,3.28a23.094,23.094,0,0,1,.759,3.706" transform="translate(11.895 0.496)" fill="#efd8c6" stroke="#000" stroke-width="1"/>
        <path id="Path_28" data-name="Path 28" d="M117.257,11.916c0,.638.005,1.278,0,1.916-.013,1.246-.036,1.167-1.208,1.489a8.539,8.539,0,0,1-4.164-.2,2.46,2.46,0,0,1-2.041-2.04,2.946,2.946,0,0,1,1.392-3.4,9.634,9.634,0,0,1,5.3-1.048c.56.035.71.384.711.862,0,.809,0,1.618,0,2.427h.01" transform="translate(28.121 2.203)" fill="#efd8c6" stroke="#000" stroke-width="1"/>
        <path id="Path_29" data-name="Path 29" d="M63.813,29.048c-.77,0-1.539-.005-2.309,0-.631.006-.947-.276-.943-.926q.013-2.18,0-4.361c0-.671.362-.9.972-.891,1.54.019,3.081-.025,4.616.058A2.767,2.767,0,0,1,68.7,25.916a2.853,2.853,0,0,1-2.58,3.105c-.766.049-1.538.009-2.308.009v.018" transform="translate(15.515 5.859)" fill="#efd8c6" stroke="#000" stroke-width="1"/>
        <path id="Path_30" data-name="Path 30" d="M16.59,23.627c.214.521.442,1.038.636,1.566.513,1.392,1.049,2.777,1.5,4.189.312.98.108,1.215-.938,1.236-1.264.028-2.527.006-3.98.006.891-2.47,1.7-4.716,2.509-6.96l.275-.038" transform="translate(3.537 6.052)" fill="#efd8c6" stroke="#000" stroke-width="1"/>
        <path id="Path_31" data-name="Path 31" d="M47.62,30.625l2.585-7.076.269-.009c.747,2.1,1.507,4.206,2.235,6.317.157.457-.093.757-.578.763-1.394.015-2.79.005-4.511.005" transform="translate(12.199 6.03)" fill="#efd8c6" stroke="#000" stroke-width="1"/>
      </g>
    </g>
  </g>
</svg>
