<svg xmlns="http://www.w3.org/2000/svg" xmlns:xlink="http://www.w3.org/1999/xlink" width="1234.028" height="1234.029" viewBox="0 0 1234.028 1234.029">
  <defs>
    <clipPath id="clip-path">
      <rect id="Rectangle_13" data-name="Rectangle 13" width="895.542" height="895.543" fill="#283021"/>
    </clipPath>
    <clipPath id="clip-path-5">
      <rect id="Rectangle_18" data-name="Rectangle 18" width="728.856" height="724.343" fill="none"/>
    </clipPath>
    <clipPath id="clip-path-6">
      <rect id="Rectangle_17" data-name="Rectangle 17" width="911.152" height="911.154" fill="none" stroke="#283021" stroke-width="15"/>
    </clipPath>
  </defs>
  <g id="LOGO" transform="translate(159.085 162.434)">
    <g id="Group_30" data-name="Group 30" transform="matrix(-0.848, 0.53, -0.53, -0.848, 1076.024, 597.376)">
      <g id="Group_18" data-name="Group 18" transform="translate(0.734 0.866)">
        <g id="Group_17" data-name="Group 17" clip-path="url(#clip-path)">
          <text id="E" transform="translate(396.079 58.804) rotate(-4.413)" fill="#283021" font-size="67" font-family="Aileron-UltraLight, Aileron" font-weight="100"><tspan x="0" y="0">E</tspan></text>
          <text id="Q" transform="translate(441.148 55.183) rotate(2.834)" fill="#283021" font-size="67" font-family="Aileron-UltraLight, Aileron" font-weight="100"><tspan x="0" y="0">Q</tspan></text>
          <text id="U" transform="translate(496.739 58.279) rotate(10.633)" fill="#283021" font-size="67" font-family="Aileron-UltraLight, Aileron" font-weight="100"><tspan x="0" y="0">U</tspan></text>
        </g>
      </g>
      <text id="U-2" data-name="U" transform="matrix(0.95, 0.312, -0.312, 0.95, 547.81, 68.788)" fill="#283021" font-size="67" font-family="Aileron-UltraLight, Aileron" font-weight="100"><tspan x="0" y="0">U</tspan></text>
      <text id="S" transform="translate(596.21 85.062) rotate(25.203)" fill="#283021" font-size="67" font-family="Aileron-UltraLight, Aileron" font-weight="100"><tspan x="0" y="0">S</tspan></text>
      <text id="_" data-name=" " transform="translate(635.498 104.225) rotate(29.526)" fill="#283021" font-size="67" font-family="Aileron-UltraLight, Aileron" font-weight="100"><tspan x="0" y="0"> </tspan></text>
      <text id="_2" data-name="&amp;" transform="translate(649.191 111.305) rotate(34.182)" fill="#283021" font-size="67" font-family="Aileron-UltraLight, Aileron" font-weight="100"><tspan x="0" y="0">&amp;</tspan></text>
      <text id="_3" data-name=" " transform="translate(688.698 139.038) rotate(38.816)" fill="#283021" font-size="67" font-family="Aileron-UltraLight, Aileron" font-weight="100"><tspan x="0" y="0"> </tspan></text>
      <text id="A" transform="matrix(0.726, 0.688, -0.688, 0.726, 701.038, 148.207)" fill="#283021" font-size="67" font-family="Aileron-UltraLight, Aileron" font-weight="100"><tspan x="0" y="0">A</tspan></text>
      <text id="W" transform="matrix(0.619, 0.785, -0.785, 0.619, 735.265, 179.556)" fill="#283021" font-size="67" font-family="Aileron-UltraLight, Aileron" font-weight="100"><tspan x="0" y="0">W</tspan></text>
      <text id="A-2" data-name="A" transform="translate(776.275 232.704) rotate(59.971)" fill="#283021" font-size="67" font-family="Aileron-UltraLight, Aileron" font-weight="100"><tspan x="0" y="0">A</tspan></text>
      <text id="R" transform="matrix(0.389, 0.921, -0.921, 0.389, 800.762, 275.504)" fill="#283021" font-size="67" font-family="Aileron-UltraLight, Aileron" font-weight="100"><tspan x="0" y="0">R</tspan></text>
      <text id="E-2" data-name="E" transform="translate(819.115 319.534) rotate(73.917)" fill="#283021" font-size="67" font-family="Aileron-UltraLight, Aileron" font-weight="100"><tspan x="0" y="0">E</tspan></text>
      <g id="Group_19" data-name="Group 19" transform="translate(0.734 0.865)" clip-path="url(#clip-path)">
        <text id="N" transform="translate(831.054 362.157) rotate(81.296)" fill="#283021" font-size="67" font-family="Aileron-UltraLight, Aileron" font-weight="100"><tspan x="0" y="0">N</tspan></text>
        <text id="E-3" data-name="E" transform="translate(838.897 416.708) rotate(88.583)" fill="#283021" font-size="67" font-family="Aileron-UltraLight, Aileron" font-weight="100"><tspan x="0" y="0">E</tspan></text>
        <text id="S-2" data-name="S" transform="translate(839.856 461.703) rotate(95.03)" fill="#283021" font-size="67" font-family="Aileron-UltraLight, Aileron" font-weight="100"><tspan x="0" y="0">S</tspan></text>
      </g>
      <text id="S-3" data-name="S" transform="translate(836.554 506.808) rotate(101.525)" fill="#283021" font-size="67" font-family="Aileron-UltraLight, Aileron" font-weight="100"><tspan x="0" y="0">S</tspan></text>
      <text id="_4" data-name=" " transform="translate(827.217 549.531) rotate(105.866)" fill="#283021" font-size="67" font-family="Aileron-UltraLight, Aileron" font-weight="100"><tspan x="0" y="0"> </tspan></text>
      <text id="_5" data-name="•
" transform="matrix(-0.318, 0.948, -0.948, -0.318, 823.241, 563.705)" fill="#283021" font-size="67" font-family="Aileron-UltraLight, Aileron" font-weight="100"><tspan x="0" y="0">•</tspan><tspan font-family="Aileron-Thin, Aileron" font-weight="200"><tspan x="0" y="81"></tspan></tspan></text>
      <text id="_6" data-name=" " transform="translate(816.224 584.259) rotate(111.234)" fill="#283021" font-size="67" font-family="Aileron-UltraLight, Aileron" font-weight="100"><tspan x="0" y="0"> </tspan></text>
      <text id="E-4" data-name="E" transform="matrix(-0.432, 0.902, -0.902, -0.432, 812.027, 599.142)" fill="#283021" font-size="66" font-family="Aileron-SemiBold, Aileron" font-weight="600"><tspan x="0" y="0">E</tspan></text>
      <text id="Q-2" data-name="Q" transform="translate(792.521 640.129) rotate(122.987)" fill="#283021" font-size="66" font-family="Aileron-SemiBold, Aileron" font-weight="600"><tspan x="0" y="0">Q</tspan></text>
      <text id="U-3" data-name="U" transform="matrix(-0.653, 0.757, -0.757, -0.653, 761.072, 686.092)" fill="#283021" font-size="67" font-family="Aileron-SemiBold, Aileron" font-weight="600"><tspan x="0" y="0">U</tspan></text>
      <text id="U-4" data-name="U" transform="matrix(-0.746, 0.666, -0.666, -0.746, 727.49, 724.744)" fill="#9ec0e7" font-size="67" font-family="Aileron-SemiBold, Aileron" font-weight="600"><tspan x="0" y="0">U</tspan></text>
      <text id="S-4" data-name="S" transform="translate(689.177 758.498) rotate(145.173)" fill="#9ec0e7" font-size="67" font-family="Aileron-SemiBold, Aileron" font-weight="600"><tspan x="0" y="0">S</tspan></text>
      <text id="_7" data-name=" " transform="matrix(-0.861, 0.508, -0.508, -0.861, 652.982, 782.945)" fill="#283021" font-size="67" font-family="Aileron-SemiBold, Aileron" font-weight="600"><tspan x="0" y="0"> </tspan></text>
      <text id="_8" data-name="&amp;" transform="translate(640.013 791.277) rotate(154.142)" fill="#283021" font-size="67" font-family="Aileron-SemiBold, Aileron" font-weight="600"><tspan x="0" y="0">&amp;</tspan></text>
      <text id="_9" data-name=" " transform="translate(596.228 811.66) rotate(158.821)" fill="#283021" font-size="67" font-family="Aileron-SemiBold, Aileron" font-weight="600"><tspan x="0" y="0"> </tspan></text>
      <text id="A-3" data-name="A" transform="translate(582.119 817.769) rotate(163.522)" fill="#283021" font-size="67" font-family="Aileron-SemiBold, Aileron" font-weight="600"><tspan x="0" y="0">A</tspan></text>
      <g id="Group_21" data-name="Group 21" transform="translate(0.734 0.865)" clip-path="url(#clip-path)">
        <text id="W-2" data-name="W" transform="translate(537.23 831.816) rotate(171.899)" fill="#283021" font-size="66" font-family="Aileron-SemiBold, Aileron" font-weight="600"><tspan x="0" y="0">W</tspan></text>
        <text id="A-4" data-name="A" transform="translate(470.22 839.921) rotate(-179.071)" fill="#283021" font-size="67" font-family="Aileron-SemiBold, Aileron" font-weight="600"><tspan x="0" y="0">A</tspan></text>
        <text id="R-2" data-name="R" transform="translate(421.231 839.305) rotate(-172.903)" fill="#283021" font-size="67" font-family="Aileron-SemiBold, Aileron" font-weight="600"><tspan x="0" y="0">R</tspan></text>
      </g>
      <text id="E-5" data-name="E" transform="matrix(-0.971, -0.24, 0.24, -0.971, 374.643, 834.043)" fill="#283021" font-size="67" font-family="Aileron-SemiBold, Aileron" font-weight="600"><tspan x="0" y="0">E</tspan></text>
      <text id="N-2" data-name="N" transform="translate(330.684 823.304) rotate(-158.711)" fill="#283021" font-size="67" font-family="Aileron-SemiBold, Aileron" font-weight="600"><tspan x="0" y="0">N</tspan></text>
      <text id="E-6" data-name="E" transform="translate(279.444 802.792) rotate(-151.336)" fill="#283021" font-size="67" font-family="Aileron-SemiBold, Aileron" font-weight="600"><tspan x="0" y="0">E</tspan></text>
      <text id="S-5" data-name="S" transform="matrix(-0.817, -0.576, 0.576, -0.817, 240.065, 781.076)" fill="#283021" font-size="67" font-family="Aileron-SemiBold, Aileron" font-weight="600"><tspan x="0" y="0">S</tspan></text>
      <text id="S-6" data-name="S" transform="matrix(-0.747, -0.665, 0.665, -0.747, 203.829, 755.338)" fill="#283021" font-size="67" font-family="Aileron-SemiBold, Aileron" font-weight="600"><tspan x="0" y="0">S</tspan></text>
      <text id="_10" data-name=" " transform="translate(171.592 725.856) rotate(-134.061)" fill="#283021" font-size="67" font-family="Aileron-UltraLight, Aileron" font-weight="100"><tspan x="0" y="0"> </tspan></text>
      <text id="_11" data-name="•
" transform="translate(161.332 715.323) rotate(-131.413)" fill="#283021" font-size="67" font-family="Aileron-UltraLight, Aileron" font-weight="100"><tspan x="0" y="0">•</tspan><tspan font-family="Aileron-Thin, Aileron" font-weight="200"><tspan x="0" y="81"></tspan></tspan></text>
      <text id="_12" data-name=" " transform="translate(147.017 698.922) rotate(-128.757)" fill="#283021" font-size="67" font-family="Aileron-UltraLight, Aileron" font-weight="100"><tspan x="0" y="0"> </tspan></text>
      <text id="E-7" data-name="E" transform="matrix(-0.565, -0.825, 0.825, -0.565, 137.086, 687.315)" fill="#283021" font-size="67" font-family="Aileron-UltraLight, Aileron" font-weight="100"><tspan x="0" y="0">E</tspan></text>
      <text id="Q-3" data-name="Q" transform="translate(111.376 650.057) rotate(-117.056)" fill="#283021" font-size="67" font-family="Aileron-UltraLight, Aileron" font-weight="100"><tspan x="0" y="0">Q</tspan></text>
      <text id="U-5" data-name="U" transform="translate(86.362 600.301) rotate(-109.194)" fill="#283021" font-size="67" font-family="Aileron-UltraLight, Aileron" font-weight="100"><tspan x="0" y="0">U</tspan></text>
      <g id="Group_23" data-name="Group 23" transform="translate(0.734 0.865)" clip-path="url(#clip-path)">
        <text id="U-6" data-name="U" transform="translate(68.962 550.97) rotate(-101.654)" fill="#283021" font-size="67" font-family="Aileron-UltraLight, Aileron" font-weight="100"><tspan x="0" y="0">U</tspan></text>
        <text id="S-7" data-name="S" transform="matrix(-0.081, -0.997, 0.997, -0.081, 59.015, 500.929)" fill="#283021" font-size="67" font-family="Aileron-UltraLight, Aileron" font-weight="100"><tspan x="0" y="0">S</tspan></text>
        <text id="_13" data-name=" " transform="translate(56.119 457.454) rotate(-90.929)" fill="#283021" font-size="67" font-family="Aileron-UltraLight, Aileron" font-weight="100"><tspan x="0" y="0"> </tspan></text>
        <text id="_14" data-name="&" transform="translate(55.364 441.957) rotate(-85.824)" fill="#283021" font-size="67" font-family="Aileron-UltraLight, Aileron" font-weight="100"><tspan x="0" y="0">&amp;</tspan></text>
        <text id="_15" data-name=" " transform="translate(59.622 393.855) rotate(-81.183)" fill="#283021" font-size="67" font-family="Aileron-UltraLight, Aileron" font-weight="100"><tspan x="0" y="0"> </tspan></text>
      </g>
      <text id="A-5" data-name="A" transform="translate(62.122 379.437) rotate(-76.493)" fill="#283021" font-size="67" font-family="Aileron-UltraLight, Aileron" font-weight="100"><tspan x="0" y="0">A</tspan></text>
      <text id="W-3" data-name="W" transform="translate(72.206 334.073) rotate(-68.095)" fill="#283021" font-size="67" font-family="Aileron-UltraLight, Aileron" font-weight="100"><tspan x="0" y="0">W</tspan></text>
      <text id="A-6" data-name="A" transform="matrix(0.503, -0.864, 0.864, 0.503, 97.912, 272.067)" fill="#283021" font-size="67" font-family="Aileron-UltraLight, Aileron" font-weight="100"><tspan x="0" y="0">A</tspan></text>
      <text id="R-3" data-name="R" transform="translate(122.892 229.555) rotate(-52.737)" fill="#283021" font-size="67" font-family="Aileron-UltraLight, Aileron" font-weight="100"><tspan x="0" y="0">R</tspan></text>
      <text id="E-8" data-name="E" transform="translate(151.963 191.733) rotate(-45.993)" fill="#283021" font-size="67" font-family="Aileron-UltraLight, Aileron" font-weight="100"><tspan x="0" y="0">E</tspan></text>
      <text id="N-3" data-name="N" transform="matrix(0.78, -0.625, 0.625, 0.78, 183.296, 159.097)" fill="#283021" font-size="67" font-family="Aileron-UltraLight, Aileron" font-weight="100"><tspan x="0" y="0">N</tspan></text>
      <text id="E-9" data-name="E" transform="translate(226.643 125.002) rotate(-31.386)" fill="#283021" font-size="67" font-family="Aileron-UltraLight, Aileron" font-weight="100"><tspan x="0" y="0">E</tspan></text>
      <text id="S-8" data-name="S" transform="translate(265.13 101.709) rotate(-24.837)" fill="#283021" font-size="67" font-family="Aileron-UltraLight, Aileron" font-weight="100"><tspan x="0" y="0">S</tspan></text>
      <text id="S-9" data-name="S" transform="matrix(0.949, -0.314, 0.314, 0.949, 305.55, 83.165)" fill="#283021" font-size="67" font-family="Aileron-UltraLight, Aileron" font-weight="100"><tspan x="0" y="0">S</tspan></text>
      <text id="_16" data-name=" " transform="matrix(0.97, -0.241, 0.241, 0.97, 347.213, 70.03)" fill="#283021" font-size="67" font-family="Aileron-UltraLight, Aileron" font-weight="100"><tspan x="0" y="0"> </tspan></text>
      <text id="_17" data-name="•
" transform="matrix(0.981, -0.195, 0.195, 0.981, 361.521, 66.422)" fill="#283021" font-size="67" font-family="Aileron-UltraLight, Aileron" font-weight="100"><tspan x="0" y="0">•</tspan><tspan font-family="Aileron-Thin, Aileron" font-weight="200"><tspan x="0" y="81"></tspan></tspan></text>
    </g>
    <g id="Group_28" data-name="Group 28" transform="translate(92.718 94.843)">
      <g id="Group_27" data-name="Group 27" clip-path="url(#clip-path-5)">
        <path id="Path_34" data-name="Path 34" d="M719.564,615.244a5.7,5.7,0,0,1,1.862,3.827,305.248,305.248,0,0,1-24.865,32.639A366.1,366.1,0,0,1,515.456,766.117q-13.338,3.677-26.957,6.258a6.95,6.95,0,0,0-3.3,1.064c-9.442,1.278-18.829,2.9-28.31,3.89a371.659,371.659,0,0,1-76.863.031,367.926,367.926,0,0,1-97.083-23.751c-14.333-5.615-28.749-11.388-41.615-19.736-19.46-12.625-39.092-25.071-56.773-40.272-19.569-16.82-37.655-34.961-53.544-55.239-.979-1.252-1.749-2.706-3.155-3.6-2.5-4.782-6.1-8.829-9.158-13.233a355.885,355.885,0,0,1-46.125-92.58c-.724-2.207-1.4-4.43-2.1-6.645-.74-.748-.027-1.932-.817-2.668-.786-1.978-1.047-4.11-1.732-6.119v-.009c-1.514-4.551-2.376-9.268-3.623-13.889-.688-3.83-1.807-7.571-2.551-11.391-3.688-16.338-5.465-32.918-6.744-49.593-.7-9.105-.53-18.212-.963-27.291-1.237-25.77,3.037-50.828,8.492-75.805a12.285,12.285,0,0,0,.114-1.734A450.17,450.17,0,0,1,78.79,283.635c2.737-6.809,5.89-13.448,8.6-20.271.977-1.876,2.019-3.721,2.856-5.667,5.35-10.124,11.181-19.979,17.218-29.713.7-1.134.883-2.457,1.676-3.519a367.541,367.541,0,0,1,32.229-43.359,340.559,340.559,0,0,1,35.414-35.689,372.893,372.893,0,0,1,54.872-39.62A368.693,368.693,0,0,1,388.324,56.1a392.434,392.434,0,0,1,56.192-.191,354.549,354.549,0,0,1,76.873,13.636c11.584,3.683,23.093,7.573,34.39,12.071a361.934,361.934,0,0,1,95.853,56.828,368.119,368.119,0,0,1,47.517,47.1,358.916,358.916,0,0,1,45.906,69.483,353.39,353.39,0,0,1,19.284,45.826c.511,1.507,1.165,2.969,1.753,4.452,1.042,5.277,3.564,10.2,4.291,15.853-3.343.014-5.643-2.414-8.591-2.1l-.044-.017" transform="translate(-53.826 -54.992)" fill="#efd8c6"/>
        <path id="Path_35" data-name="Path 35" d="M725.48,297.678a12.458,12.458,0,0,1,2.382,5.285c2.231,8.832,4.21,17.724,5.707,26.7,2.213,13.3,4.285,26.6,4.938,40.132.579,12.006,2.317,24,1.658,36.014-.462,8.419-.883,16.864-1.447,25.284-.527,7.8-1.523,15.522-2.4,23.264a232.836,232.836,0,0,1-5.6,31.693c-3.628,14.2-7.094,28.454-11.281,42.493a226.106,226.106,0,0,1-11.42,29.634c-2.788,6.073-4.777,12.5-8.221,18.284-.834,1.4-1.623,2.836-2.585,4.151-1.232,1.682-2.953,6.274-3.551,4.766-.418-1.052-.9-5.517-1.169-6.625a25.773,25.773,0,0,0-5.853-11.471,19.486,19.486,0,0,0-2.656-3.043c-.228,0-1.466-1.359-1.7-1.364a29.709,29.709,0,0,1-6.682-4.038,14.282,14.282,0,0,0-8.7-2.76c-7.732-2.487-15.89-2.432-23.782-3.948-4.7-.9-9.275-2.073-13.351-4.779a21.1,21.1,0,0,0-7.805-2.922c-10.5-2.006-18.943-6.721-24.207-16.517-2.991-5.58-6.861-10.716-10.523-15.929a22.243,22.243,0,0,1-4.005-11.9c-.74-16.352-4.5-32.237-7.767-48.156-2.622-12.769-4.7-25.568-6.491-38.471-2.9-20.857-8.907-40.728-22.686-57.444-4.689-5.69-10.245-10.578-15.551-15.693-9.17-8.84-19.384-16.513-28.573-25.348-3.971-3.815-8.654-6.956-13.123-10.258-5.383-3.98-11.993-3.668-18.052-3.764-11.807-.194-23.65.682-35.071,4.193-4.555,1.4-8.783,3.656-13.365,5.036-4.247,1.28-8.43,2.823-12.859,3.365-10.182,1.249-16.354,8.254-22.808,15.1-13.167,13.966-15.812,32.181-20.56,49.486-2.838,10.329-4.151,21.038-6.217,31.558-2.014,10.239-2.568,20,.642,30.278,2.744,8.8,2.286,18.313,1.922,27.576-.071,1.767-.521,3.555-.429,5.341.6,11.626-1.069,22.979-3.219,34.4-2.714,14.419-3.825,29.032-1.692,43.716.4,2.746,1.351,5.019,3.651,6.627,1.215.849,2.248,1.918,3.457,2.758,2.614,1.805,4.563,4.022,3.392,7.363-1.159,3.288-4.084,3.919-7.228,3.957-15.929.207-31.135,3.614-46.314,8.426-10.484,3.319-14.307,9.992-15.214,19.656-1.472,15.7-3.681,31.384-3.71,47.14-.025,14.116-1.491,28.262.443,42.385.814,5.956-.205,12.046.811,18.042a5.628,5.628,0,0,1-1.932,4.844,68.848,68.848,0,0,1-15.068,4.16c-6.447,1.146-12.1-.636-16.161-6.046-1.957-2.606-4.641-3.095-7.673-3.675-8.323-1.6-16.845-2.242-24.723-6.036-13.229-6.372-19.579-17.883-24.177-30.7-3.258-9.085-4.4-18.631-5.368-28.214-.623-6.134-3.246-11.908-4.13-18.073a56.087,56.087,0,0,1,1.939-23.142,53.154,53.154,0,0,0,1.775-6.585c3.1-21.72,15.024-39.724,25.091-58.518,3.275-6.115,6.722-12.129,10.4-18.343,8.378-14.141,17.407-28.24,25.727-42.752,3.02-5.268,4.729-11.1,7.414-16.513,5.149-10.379,10.722-20.514,16.555-30.55,6.389-11,10.714-23.09,15.185-34.944a113.738,113.738,0,0,1,15.425-27.607c5.893-7.97,10.9-16.23,13.493-25.832,1.466-5.427,4.419-10.193,7.537-14.775,8.087-11.879,17.2-23.1,24.93-35.157,7.892-12.312,18.993-20.947,29.889-30.01,2.533-2.106,3.112-3.98,1.188-6.617-5.793-7.949-9.815-16.929-15-25.231a16.209,16.209,0,0,0-4.448-5.184c-7.372-4.937-10.854-12.42-13.692-20.334a10.735,10.735,0,0,1-.769-3.325c-.067-2.581.378-4.986,3.078-6.117,2.468-1.031,4.53.082,6.217,1.8,2.38,2.422,4.068,5.523,8.5,8-1.765-6.061-.264-11.176-.241-16.383.046-11.9-.1-23.8.069-35.7.071-5-2.043-9.545-2.38-14.42-.073-.316-.163-.629-.266-.937-1.815-10.266,3-15.141,13.514-13.861,7.031.855,13.416,3.106,18.778,7.813,8.474,7.433,17.192,14.66,24.347,23.4a61.51,61.51,0,0,1,10.475,18.728c3.93,11.274,10.609,21.321,14.6,32.578a149.007,149.007,0,0,1,5.877,21.649c1.11,5.753,2.244,6.64,7.922,5.935a134.892,134.892,0,0,1,37.787,1.048,83.171,83.171,0,0,1,25.11,8.4,80.76,80.76,0,0,0,29.947,8.775c5.5.51,10.868,1.389,16.387.642a4.827,4.827,0,0,1,2.449.117c8.723,3.8,17.843,1.432,26.771,1.642a49.189,49.189,0,0,1,19.608,4.059c5.021,2.282,10.569,2.28,15.8,3.677,8.717,2.328,16.864,5.487,22.456,13.048,1.351,1.824,3.463,2.374,5.49,3.072,6.83,2.355,13.5,5.109,20.231,7.721,3.737,3,7.535,5.483,12.845,4.538,3.49-.619,6.483,2.043,9.909,2.428a5.29,5.29,0,0,1,1.416.494c2,1.414,4.406,2.068,6.468,3.354,1.443.9,3.436,1.61,2.3,4.009" transform="translate(-7.455 -55.911)" fill="#2c1d1b"/>
        <path id="Path_36" data-name="Path 36" d="M247.965,626a5.317,5.317,0,0,0,.772-3.221,404.1,404.1,0,0,1-1.554-45.348c.372-11.236.272-22.5,1.023-33.712.772-11.527,1.941-23.05,3.488-34.5,1.05-7.782,5.122-13.5,13.426-15.716,9.98-2.66,19.526-6.976,29.926-8.02,6.37-.64,12.793-.86,19.192-1.255.985-.061,1.978,0,2.959-.078,1.6-.119,2.915-.707,3.265-2.432a3.29,3.29,0,0,0-1.545-3.819,57.037,57.037,0,0,1-5.954-4.327,9.319,9.319,0,0,1-4.022-7.485c-.579-12.7-1.28-25.351.945-38.043,1.179-6.726,1.855-13.537,3.676-20.154a12.033,12.033,0,0,0,.586-3.365c-.259-11.078.83-22.149.2-33.229-.176-3.089-.387-6.176-.5-9.275a24.227,24.227,0,0,0-2.522-10.86,16.13,16.13,0,0,1-1.64-8.037c.048-7.529,1.834-14.823,2.786-22.214,1.462-11.353,4.387-22.343,6.736-33.461,2.568-12.129,7.112-23.713,11.759-35.215a4.347,4.347,0,0,1,.728-1.271c5.9-6.537,10.657-14.093,17.87-19.457a25.9,25.9,0,0,1,10.64-4.825,137.224,137.224,0,0,0,26.359-8.054,63.208,63.208,0,0,1,17.226-4.017,155.179,155.179,0,0,1,32.509-.422,17.028,17.028,0,0,1,10.446,5,29.044,29.044,0,0,0,7.439,5.582,3.485,3.485,0,0,1,1.236.788c4.454,5.5,10.766,9.009,15.492,14.215a7.259,7.259,0,0,0,1.339,1.424c7.2,4.44,12.292,11.222,18.773,16.452a77.457,77.457,0,0,1,10.8,11.374,89.718,89.718,0,0,1,14.921,24.61,137.233,137.233,0,0,1,6.813,24.878c1.93,10.578,3.166,21.227,4.741,31.842.64,4.333,2.137,8.539,2.984,12.853,3.334,16.939,7.058,33.81,8.409,51.078a22.9,22.9,0,0,0,4.557,12.644,152.466,152.466,0,0,1,11.439,17.632c3.844,6.807,10.523,9.733,17.59,11.536,4.82,1.227,9.518,2.407,13.79,5.027,4.9,3,10.609,3.584,16.088,4.342,6.335.883,12.7,1.414,18.872,3.216,5.793,1.592,10.3,5.326,14.976,8.777l.042.054a12.616,12.616,0,0,0,1.474,1.872c6.88,5.994,8.978,13.882,9.338,22.546.142,3.455-1.351,6.226-3.026,9.007a314.3,314.3,0,0,1-18.93,31.355,1.761,1.761,0,0,1-2.05.91c-7.336-5.956-12.038-14.12-17.985-21.237a557.544,557.544,0,0,0-45.638-48.577,21.828,21.828,0,0,0-13.382-5.645,70.939,70.939,0,0,1-20.589-4.515c-4.425-1.782-9.041-1.41-13.641-1.2-2.238.1-3.626,1.566-4.624,3.269-4.663,7.949-10.908,14.664-17.169,21.3-13.719,14.545-29.924,24.924-49.591,30.33-12.061,3.319-24.18,4.291-36.468,4.559-5.406.121-9.5,2.436-13.06,5.933a53.887,53.887,0,0,1-24.514,13.913,23.93,23.93,0,0,0-8.622,4.626c-12.355,9.725-26.676,15.984-40.9,22.254-7.73,3.405-13.106,8.076-13.984,16.578-1.512,14.672-10.4,24.569-21.488,32.986a34.924,34.924,0,0,1-20.865,7.529c-2.372.034-4.457.995-6.661,1.627-2.294.659-4.812,1.738-6.707-.928" transform="translate(38.475 29.457)" fill="#9ec0e7"/>
      </g>
    </g>
    <g id="Group_26" data-name="Group 26" transform="translate(0.765 0.898)">
      <g id="Group_25" data-name="Group 25" clip-path="url(#clip-path-6)">
        <text id="_18" data-name=" " transform="translate(388.928 63.345) rotate(-8.597)" fill="none" stroke="#283021" stroke-width="15" font-size="69" font-family="Aileron-Bold, Aileron" font-weight="700"><tspan x="0" y="0"> </tspan></text>
        <path id="Path_33" data-name="Path 33" d="M421,48.82C626.544,48.82,793.173,215.449,793.173,421S626.544,793.174,421,793.174,48.819,626.545,48.819,421,215.448,48.82,421,48.82" transform="translate(34.58 34.581)" fill="none" stroke="#283021" stroke-width="15"/>
      </g>
    </g>
  </g>
</svg>
